<svg width="129.574" height="53.214" viewBox="0 0 129.574 53.214" xmlns="http://www.w3.org/2000/svg"><g id="svgGroup" stroke-linecap="round" fill-rule="evenodd" font-size="9pt" stroke="#080808" stroke-width="0.25mm" fill="#000000" style="stroke:#080808;stroke-width:0.25mm;fill:#000000"><path d="M 43.471 38.816 L 43.559 39.519 Q 43.119 39.401 43.017 39.548 A 0.505 0.505 0 0 0 42.948 39.692 Q 42.928 39.76 42.92 39.841 A 1.159 1.159 0 0 0 42.914 39.958 A 10.29 10.29 0 0 0 42.928 40.483 A 11.108 11.108 0 0 0 42.929 40.5 A 0.695 0.695 0 0 1 42.93 40.537 Q 42.93 40.788 42.738 40.925 A 0.775 0.775 0 0 1 42.659 41.016 Q 42.609 41.065 42.555 41.096 A 0.484 0.484 0 0 1 42.548 41.101 A 0.901 0.901 0 0 0 42.357 41.247 Q 41.42 41.95 41.068 43.034 Q 41.01 43.21 40.98 43.386 A 3.033 3.033 0 0 1 40.944 43.569 A 3.972 3.972 0 0 1 40.893 43.767 A 2.852 2.852 0 0 1 40.702 44.184 Q 40.6 44.37 40.463 44.561 A 4.668 4.668 0 0 1 40.424 44.616 Q 40.102 45.056 39.721 45.525 A 15.074 15.074 0 0 0 38.988 46.506 A 5.337 5.337 0 0 0 38.559 47.251 A 4.658 4.658 0 0 0 38.432 47.546 A 2.059 2.059 0 0 0 38.288 47.533 Q 37.955 47.515 37.732 47.624 A 0.741 0.741 0 0 0 37.685 47.649 A 1.303 1.303 0 0 0 37.23 48.088 A 3.113 3.113 0 0 0 36.938 48.689 A 2.219 2.219 0 0 1 36.734 49.11 A 1.958 1.958 0 0 1 36.63 49.26 Q 36.439 49.509 36.132 49.641 Q 35.848 49.762 35.403 49.647 A 2.382 2.382 0 0 1 35.326 49.626 L 34.008 50.827 A 1.033 1.033 0 0 0 33.813 50.738 Q 33.562 50.655 33.319 50.739 A 3.392 3.392 0 0 0 32.817 50.963 A 3.968 3.968 0 0 0 32.646 51.062 A 3.698 3.698 0 0 1 32.182 51.302 A 3.19 3.19 0 0 1 31.972 51.384 Q 31.636 51.501 31.257 51.298 A 1.44 1.44 0 0 1 31.254 51.296 A 1.507 1.507 0 0 1 31.158 51.397 Q 31.059 51.491 30.976 51.526 A 0.257 0.257 0 0 1 30.902 51.545 Q 30.756 51.56 30.551 51.296 L 30.111 51.765 A 3.593 3.593 0 0 0 29.719 51.483 Q 29.503 51.347 29.247 51.223 A 7.005 7.005 0 0 1 28.364 50.714 A 6.431 6.431 0 0 1 28.295 50.666 A 2.89 2.89 0 0 1 27.836 50.271 A 2.419 2.419 0 0 1 27.592 49.963 A 0.946 0.946 0 0 1 27.438 49.511 Q 27.417 49.265 27.5 48.968 A 2.25 2.25 0 0 1 27.504 48.952 A 1.368 1.368 0 0 0 27.439 48.793 Q 27.4 48.713 27.349 48.628 A 2.456 2.456 0 0 0 27.313 48.571 A 2.505 2.505 0 0 1 27.094 48.147 A 1.856 1.856 0 0 1 26.985 47.764 A 1.704 1.704 0 0 1 26.977 47.707 A 0.545 0.545 0 0 1 26.972 47.635 Q 26.972 47.458 27.094 47.312 A 1.791 1.791 0 0 1 26.923 46.852 Q 26.864 46.578 26.903 46.301 A 7.172 7.172 0 0 1 27.123 45.29 Q 27.27 44.792 27.357 44.294 A 1.43 1.43 0 0 0 27.379 44.045 Q 27.379 43.771 27.273 43.496 A 1.881 1.881 0 0 0 27.182 43.298 A 1.522 1.522 0 0 0 27.694 42.624 Q 27.855 42.214 27.987 41.775 A 17.345 17.345 0 0 1 28.266 40.925 A 1.425 1.425 0 0 1 28.764 40.251 L 28.734 39.782 A 26.857 26.857 0 0 1 31.649 37.102 Q 33.188 35.886 35.121 35.3 A 2.622 2.622 0 0 1 35.561 34.718 A 2.175 2.175 0 0 1 36.117 34.318 A 15.647 15.647 0 0 1 37.362 33.762 A 5.689 5.689 0 0 0 38.503 33.158 A 5.342 5.342 0 0 0 38.52 33.147 A 1.836 1.836 0 0 0 39.016 32.621 Q 39.191 32.349 39.311 31.989 A 1.299 1.299 0 0 0 39.359 32.086 Q 39.464 32.273 39.568 32.273 A 0.122 0.122 0 0 0 39.604 32.268 Q 39.75 32.224 39.911 32.121 A 1.51 1.51 0 0 1 40.049 32.043 Q 40.125 32.005 40.198 31.981 A 0.921 0.921 0 0 1 40.219 31.975 Q 40.364 31.931 40.508 32.217 A 1.402 1.402 0 0 1 40.512 32.224 A 3.174 3.174 0 0 1 40.949 31.357 A 2.772 2.772 0 0 1 41.464 30.817 A 7.877 7.877 0 0 1 42.829 29.945 A 8.743 8.743 0 0 1 42.929 29.895 Q 43.734 29.499 44.555 29.133 A 6.385 6.385 0 0 0 45.636 28.523 A 5.629 5.629 0 0 0 46.005 28.239 A 3.346 3.346 0 0 0 46.957 26.936 Q 47.279 26.159 47.104 24.929 A 0.917 0.917 0 0 0 47.327 24.722 A 0.806 0.806 0 0 0 47.455 24.475 A 3.733 3.733 0 0 0 47.587 23.903 A 2.932 2.932 0 0 1 47.646 23.609 A 2.275 2.275 0 0 1 47.719 23.376 A 0.488 0.488 0 0 1 47.951 23.115 A 0.765 0.765 0 0 1 48.1 23.054 Q 47.895 22.732 47.602 22.761 A 1.68 1.68 0 0 0 47.22 22.846 A 2.117 2.117 0 0 0 47.001 22.937 A 10.998 10.998 0 0 0 46.634 23.12 A 9.153 9.153 0 0 0 46.43 23.23 A 0.922 0.922 0 0 1 46.325 23.28 Q 46.136 23.356 45.999 23.292 A 0.309 0.309 0 0 1 45.99 23.288 Q 45.902 23.698 45.624 23.874 A 3.845 3.845 0 0 1 45.044 24.173 A 4.228 4.228 0 0 1 45.023 24.182 Q 44.701 24.314 44.35 24.46 Q 43.998 24.607 43.793 24.929 A 0.491 0.491 0 0 0 43.698 24.897 Q 43.491 24.852 43.313 25.028 A 0.729 0.729 0 0 0 43.31 25.031 Q 43.09 25.251 42.87 25.5 A 1.573 1.573 0 0 1 42.624 25.727 A 1.27 1.27 0 0 1 42.387 25.866 Q 42.123 25.983 41.771 25.632 Q 41.596 26.101 41.2 26.247 A 2.371 2.371 0 0 1 40.566 26.384 A 2.835 2.835 0 0 1 40.336 26.394 Q 39.867 26.394 39.384 26.335 A 3.223 3.223 0 0 0 39.126 26.314 Q 38.796 26.301 38.52 26.364 L 38.021 25.866 Q 37.963 26.013 37.831 26.101 A 0.325 0.325 0 0 1 37.751 26.14 Q 37.671 26.166 37.586 26.141 A 0.356 0.356 0 0 1 37.553 26.13 A 15.241 15.241 0 0 1 37.237 25.411 A 17.861 17.861 0 0 1 37.099 25.061 A 4.96 4.96 0 0 1 36.821 24.025 A 4.589 4.589 0 0 1 36.806 23.918 A 2.62 2.62 0 0 1 36.784 23.585 A 2.513 2.513 0 0 1 36.908 22.805 A 1.833 1.833 0 0 1 37.316 22.122 A 2.448 2.448 0 0 1 37.611 21.853 A 6.713 6.713 0 0 1 38.831 20.237 A 6.012 6.012 0 0 1 39.75 19.509 Q 39.896 19.626 40.072 19.582 A 1.417 1.417 0 0 0 40.275 19.514 A 1.854 1.854 0 0 0 40.438 19.436 Q 40.629 19.333 40.805 19.201 A 1.224 1.224 0 0 1 40.922 19.123 Q 40.983 19.087 41.04 19.065 A 0.547 0.547 0 0 1 41.127 19.04 Q 41.215 18.718 41.464 18.425 A 3.559 3.559 0 0 1 42.021 17.898 Q 42.328 17.663 42.665 17.473 A 15.996 15.996 0 0 1 42.991 17.293 A 12.458 12.458 0 0 1 43.295 17.136 A 5.054 5.054 0 0 0 44.335 16.477 Q 44.818 16.081 45.316 15.715 Q 45.814 15.349 46.342 15.085 Q 46.869 14.821 47.543 14.821 L 48.07 15.29 A 3.422 3.422 0 0 0 47.206 16.008 A 58.177 58.177 0 0 1 46.459 16.858 Q 46.078 17.282 45.639 17.634 A 2.21 2.21 0 0 1 44.956 18 A 2.864 2.864 0 0 1 44.555 18.103 A 5.348 5.348 0 0 1 43.134 19.846 A 23.595 23.595 0 0 1 41.303 21.179 A 1.189 1.189 0 0 1 41.266 21.484 A 0.866 0.866 0 0 1 41.039 21.882 A 2.928 2.928 0 0 1 40.558 22.268 A 3.379 3.379 0 0 1 40.424 22.351 A 8.066 8.066 0 0 1 39.721 22.717 A 1.898 1.898 0 0 0 39.393 22.906 A 1.504 1.504 0 0 0 39.149 23.127 A 0.872 0.872 0 0 0 38.934 23.642 A 1.144 1.144 0 0 0 38.93 23.742 A 0.954 0.954 0 0 0 38.967 23.993 Q 39.049 24.292 39.311 24.694 A 2.134 2.134 0 0 1 39.695 24.549 Q 39.909 24.49 40.16 24.46 Q 40.658 24.401 41.127 24.299 A 2.953 2.953 0 0 0 41.667 24.128 A 2.49 2.49 0 0 0 41.962 23.977 A 1.108 1.108 0 0 0 42.394 23.494 A 1.51 1.51 0 0 0 42.475 23.288 A 2.082 2.082 0 0 1 42.913 22.996 A 1.717 1.717 0 0 1 43.354 22.849 A 3.103 3.103 0 0 1 43.927 22.796 A 3.368 3.368 0 0 1 44.32 22.819 A 31.194 31.194 0 0 1 45.901 21.212 A 27.884 27.884 0 0 1 46.269 20.871 A 33.007 33.007 0 0 0 48.129 19.04 A 18.012 18.012 0 0 0 49.755 17.033 A 11.067 11.067 0 0 0 50.605 15.585 A 13.87 13.87 0 0 0 51.059 14.558 A 1.485 1.485 0 0 1 51.308 14.505 Q 51.384 14.496 51.458 14.496 A 1.135 1.135 0 0 1 52.113 14.704 A 1.878 1.878 0 0 1 52.633 15.23 A 1.794 1.794 0 0 1 52.787 15.525 A 2.894 2.894 0 0 1 52.628 16.106 A 2.665 2.665 0 0 1 52.597 16.184 A 13.046 13.046 0 0 0 52.443 16.557 A 10.876 10.876 0 0 0 52.362 16.77 Q 52.26 17.048 52.216 17.37 A 1.135 1.135 0 0 0 52.206 17.524 Q 52.206 17.787 52.318 18.103 A 0.447 0.447 0 0 0 52.261 18.092 Q 52.098 18.073 51.99 18.198 A 0.454 0.454 0 0 0 51.952 18.249 A 2.352 2.352 0 0 1 51.804 18.456 A 1.841 1.841 0 0 1 51.674 18.601 A 1.484 1.484 0 0 1 51.706 18.799 Q 51.729 19.044 51.657 19.256 A 0.995 0.995 0 0 1 51.645 19.289 Q 51.527 19.597 51.352 19.875 A 3.845 3.845 0 0 0 51.052 20.456 A 4.228 4.228 0 0 0 51.044 20.476 Q 50.912 20.798 50.971 21.179 A 6.316 6.316 0 0 0 50.37 22.775 A 10.954 10.954 0 0 0 50.121 24.46 L 50.648 24.929 A 2.274 2.274 0 0 1 51.137 24.405 A 2.004 2.004 0 0 1 51.601 24.138 A 10.109 10.109 0 0 1 52.758 23.742 A 11.191 11.191 0 0 0 53.9 23.361 A 2.066 2.066 0 0 0 54.611 22.886 A 2.689 2.689 0 0 0 54.867 22.585 Q 55.004 21.925 55.37 21.557 A 1.437 1.437 0 0 1 55.6 21.369 Q 56.156 21.003 56.771 20.739 A 10.39 10.39 0 0 0 57.958 20.139 A 1.674 1.674 0 0 0 58.584 19.475 A 2.394 2.394 0 0 0 58.764 19.04 L 59.496 19.04 A 0.282 0.282 0 0 0 59.481 19.091 Q 59.458 19.207 59.555 19.304 L 59.76 19.509 A 3.164 3.164 0 0 0 59.262 20.417 A 5.838 5.838 0 0 1 58.837 21.355 A 2.58 2.58 0 0 1 58.397 21.931 A 2.355 2.355 0 0 1 58.222 22.087 A 1.15 1.15 0 0 1 57.796 22.297 Q 57.54 22.366 57.211 22.351 Q 56.742 22.526 56.522 22.981 A 37.883 37.883 0 0 0 56.098 23.889 A 2.366 2.366 0 0 1 55.863 24.299 A 1.857 1.857 0 0 1 55.57 24.621 A 0.65 0.65 0 0 1 55.249 24.769 Q 55.021 24.808 54.713 24.726 A 2.31 2.31 0 0 1 54.604 24.694 A 5.629 5.629 0 0 0 53.124 25.617 Q 52.465 26.189 51.879 26.804 Q 51.722 26.961 51.531 27.178 A 13.317 13.317 0 0 0 51.41 27.317 Q 51.22 27.538 51.046 27.676 A 1.493 1.493 0 0 1 50.912 27.771 A 0.53 0.53 0 0 1 50.796 27.821 Q 50.663 27.859 50.529 27.811 A 0.51 0.51 0 0 1 50.502 27.8 A 3.583 3.583 0 0 1 50.211 27.66 A 3.124 3.124 0 0 1 50.121 27.609 Q 49.945 27.507 49.784 27.507 Q 49.623 27.507 49.506 27.771 Q 49.67 28.099 49.628 28.268 A 0.213 0.213 0 0 1 49.594 28.342 A 0.571 0.571 0 0 1 49.452 28.477 Q 49.385 28.522 49.3 28.558 A 1.197 1.197 0 0 1 49.213 28.591 A 4.561 4.561 0 0 1 48.738 28.72 A 5.097 5.097 0 0 1 48.656 28.737 A 1.354 1.354 0 0 0 48.445 28.797 Q 48.295 28.853 48.188 28.942 A 1.768 1.768 0 0 0 47.689 29.733 A 16.818 16.818 0 0 0 47.426 30.671 Q 47.309 31.14 47.089 31.565 Q 46.869 31.989 46.371 32.224 A 1.032 1.032 0 0 1 46.48 32.31 Q 46.655 32.472 46.62 32.634 A 1.462 1.462 0 0 1 46.548 32.869 A 1.9 1.9 0 0 1 46.459 33.059 A 1.853 1.853 0 0 0 46.356 33.286 A 1.43 1.43 0 0 0 46.298 33.483 A 0.279 0.279 0 0 0 46.292 33.542 Q 46.292 33.718 46.518 33.894 Q 46.078 34.45 45.741 35.095 A 54.219 54.219 0 0 0 45.082 36.399 A 20.321 20.321 0 0 1 44.394 37.688 A 4.628 4.628 0 0 1 43.471 38.816 Z M 12.035 27.946 L 11.654 28.005 L 11.625 28.064 A 4.498 4.498 0 0 0 10.731 28.327 A 4.632 4.632 0 0 1 9.867 28.591 A 61.176 61.176 0 0 0 9.312 28.679 A 54.364 54.364 0 0 0 9.135 28.708 A 6.067 6.067 0 0 0 8.769 28.781 A 7.944 7.944 0 0 0 8.373 28.884 A 2.201 2.201 0 0 0 7.95 29.05 A 2.718 2.718 0 0 0 7.729 29.177 A 1.537 1.537 0 0 1 7.293 29.37 A 1.39 1.39 0 0 1 7.055 29.411 A 2.39 2.39 0 0 1 6.838 29.421 A 2.58 2.58 0 0 1 6.396 29.382 A 3.861 3.861 0 0 1 5.736 29.206 Q 5.59 29.148 5.443 29.206 A 3.865 3.865 0 0 0 5.15 29.338 A 2.914 2.914 0 0 1 4.843 29.47 A 0.479 0.479 0 0 1 4.678 29.499 Q 4.594 29.499 4.506 29.47 Q 4.26 29.388 3.962 29.255 A 8.427 8.427 0 0 1 3.92 29.235 A 5.193 5.193 0 0 0 3.766 29.177 A 6.608 6.608 0 0 0 3.598 29.118 A 1.259 1.259 0 0 0 3.449 29.078 Q 3.358 29.06 3.275 29.06 A 0.478 0.478 0 0 1 3.204 29.053 Q 3.092 29.036 2.909 28.972 A 4.268 4.268 0 0 1 2.56 28.83 A 5.037 5.037 0 0 1 2.396 28.752 A 4.733 4.733 0 0 1 2.055 28.564 A 4.013 4.013 0 0 1 1.913 28.474 Q 1.693 28.327 1.635 28.21 Q 1.459 27.946 1.239 27.756 A 1.293 1.293 0 0 1 1.015 27.5 A 1.761 1.761 0 0 1 0.873 27.243 A 0.344 0.344 0 0 0 0.854 27.21 Q 0.818 27.155 0.741 27.067 A 0.852 0.852 0 0 0 0.699 27.022 Q 0.626 26.95 0.58 26.95 Q 0.531 26.95 0.502 26.866 A 0.416 0.416 0 0 1 0.492 26.833 A 3.316 3.316 0 0 1 0.47 26.739 Q 0.461 26.697 0.452 26.651 A 6.012 6.012 0 0 1 0.434 26.555 Q 0.404 26.394 0.39 26.262 L 0.375 26.13 A 5.368 5.368 0 0 1 0.314 25.852 A 6.757 6.757 0 0 1 0.272 25.617 Q 0.229 25.339 0.229 25.105 L 0.229 24.519 A 0.757 0.757 0 0 0 0.197 24.31 Q 0.171 24.219 0.123 24.121 A 1.683 1.683 0 0 0 0.053 23.991 A 0.267 0.267 0 0 1 0.011 23.912 Q -0.01 23.846 0.009 23.771 A 0.355 0.355 0 0 1 0.023 23.728 A 1.171 1.171 0 0 1 0.137 23.511 A 1.06 1.06 0 0 1 0.17 23.464 A 0.974 0.974 0 0 0 0.265 23.354 Q 0.311 23.293 0.338 23.231 A 0.509 0.509 0 0 0 0.36 23.171 A 1.557 1.557 0 0 0 0.419 22.878 A 2.448 2.448 0 0 1 0.449 22.667 A 2.153 2.153 0 0 1 0.463 22.6 A 0.294 0.294 0 0 1 0.514 22.491 Q 0.542 22.452 0.583 22.415 A 0.766 0.766 0 0 1 0.668 22.351 Q 0.814 22.233 0.873 22.043 Q 0.932 21.853 0.902 21.706 A 0.541 0.541 0 0 1 1.107 21.276 A 0.856 0.856 0 0 1 1.225 21.193 Q 1.512 21.024 1.683 20.819 A 1.233 1.233 0 0 0 1.723 20.769 A 1.722 1.722 0 0 0 1.92 20.428 A 2.161 2.161 0 0 0 2.001 20.212 A 9.142 9.142 0 0 1 2.192 19.671 A 8.246 8.246 0 0 1 2.221 19.597 A 0.686 0.686 0 0 1 2.349 19.403 Q 2.412 19.334 2.498 19.272 A 1.318 1.318 0 0 1 2.558 19.231 Q 2.807 19.069 3.07 18.908 A 2.648 2.648 0 0 0 3.509 18.57 A 2.979 2.979 0 0 0 3.568 18.513 A 1.139 1.139 0 0 0 3.813 18.142 A 1.516 1.516 0 0 0 3.891 17.898 A 0.09 0.09 0 0 0 3.899 17.871 Q 3.907 17.819 3.87 17.729 A 0.753 0.753 0 0 0 3.861 17.707 Q 3.817 17.608 3.756 17.55 A 0.31 0.31 0 0 0 3.715 17.517 A 6.671 6.671 0 0 0 3.632 17.463 Q 3.59 17.435 3.542 17.405 A 11.7 11.7 0 0 0 3.51 17.385 A 1.461 1.461 0 0 0 3.433 17.34 Q 3.394 17.319 3.359 17.303 A 0.643 0.643 0 0 0 3.305 17.282 A 1.009 1.009 0 0 1 3.027 17.059 A 0.931 0.931 0 0 1 2.909 16.887 A 1.269 1.269 0 0 0 2.543 16.462 A 2.258 2.258 0 0 0 2.092 16.201 A 2.562 2.562 0 0 0 2.016 16.169 A 0.568 0.568 0 0 1 1.801 16.024 Q 1.697 15.908 1.664 15.73 A 2.452 2.452 0 0 0 1.602 15.542 Q 1.566 15.447 1.52 15.345 A 4.2 4.2 0 0 0 1.488 15.275 A 1.937 1.937 0 0 1 1.432 15.144 Q 1.382 15.015 1.373 14.921 A 0.422 0.422 0 0 1 1.371 14.88 Q 1.371 14.646 1.342 14.455 A 2.579 2.579 0 0 1 1.313 14.092 A 2.847 2.847 0 0 1 1.313 14.06 A 1.406 1.406 0 0 1 1.296 13.86 Q 1.296 13.853 1.296 13.847 A 1.171 1.171 0 0 1 1.4 13.357 Q 1.516 13.102 1.449 12.793 A 1.355 1.355 0 0 0 1.4 12.624 A 179.771 179.771 0 0 1 1.472 12.266 Q 1.505 12.104 1.542 11.923 A 379.076 379.076 0 0 1 1.62 11.54 A 4.669 4.669 0 0 1 1.723 11.128 Q 1.785 10.924 1.86 10.755 A 2.097 2.097 0 0 1 1.986 10.515 A 0.84 0.84 0 0 1 2.04 10.423 Q 2.071 10.378 2.11 10.329 A 1.917 1.917 0 0 1 2.177 10.251 Q 2.309 10.105 2.426 10.046 A 1.093 1.093 0 0 0 2.865 9.548 A 1.379 1.379 0 0 1 3.246 9.108 A 0.808 0.808 0 0 0 3.437 8.938 Q 3.551 8.802 3.642 8.596 Q 3.758 8.332 3.82 8.122 A 2.258 2.258 0 0 0 3.861 7.966 A 0.732 0.732 0 0 1 3.96 7.735 A 0.614 0.614 0 0 1 4.271 7.497 A 0.483 0.483 0 0 0 4.397 7.435 A 0.38 0.38 0 0 0 4.521 7.292 A 7.301 7.301 0 0 0 4.606 7.115 A 6.03 6.03 0 0 0 4.652 7.014 A 6.3 6.3 0 0 1 4.739 6.826 A 5.446 5.446 0 0 1 4.77 6.765 Q 4.809 6.686 4.861 6.647 A 0.194 0.194 0 0 1 4.916 6.618 Q 5.086 6.562 5.064 6.451 A 0.151 0.151 0 0 0 5.063 6.442 A 0.377 0.377 0 0 1 5.171 6.387 Q 5.271 6.355 5.414 6.355 Q 5.531 6.355 5.824 6.193 Q 6.049 6.07 6.187 5.99 A 6.374 6.374 0 0 0 6.264 5.944 L 6.498 5.769 A 1.206 1.206 0 0 0 6.806 5.42 A 1.151 1.151 0 0 0 6.879 5.271 A 0.937 0.937 0 0 1 7.234 4.837 A 1.177 1.177 0 0 1 7.289 4.802 A 86.389 86.389 0 0 0 7.575 4.63 A 74.314 74.314 0 0 0 7.846 4.465 A 3.628 3.628 0 0 0 8.344 4.099 Q 8.49 3.982 8.637 3.894 L 8.93 3.718 A 3.292 3.292 0 0 1 9.604 3.37 A 2.952 2.952 0 0 1 9.838 3.293 A 83.714 83.714 0 0 0 10.681 3.051 A 91.713 91.713 0 0 0 10.805 3.015 A 0.446 0.446 0 0 0 10.97 2.924 Q 11.078 2.833 11.171 2.663 A 0.645 0.645 0 0 1 11.518 2.368 A 1.027 1.027 0 0 1 11.742 2.312 A 1.665 1.665 0 0 1 11.865 2.292 Q 11.928 2.284 11.985 2.283 A 0.969 0.969 0 0 1 12.006 2.282 L 12.27 2.282 A 0.249 0.249 0 0 0 12.438 2.217 A 0.361 0.361 0 0 0 12.475 2.18 A 0.693 0.693 0 0 0 12.606 1.945 L 12.694 1.682 Q 12.727 1.585 12.767 1.543 A 0.112 0.112 0 0 1 12.797 1.521 Q 12.826 1.491 12.841 1.491 A 0.023 0.023 0 0 0 12.849 1.489 Q 12.862 1.484 12.881 1.466 A 0.305 0.305 0 0 0 12.885 1.462 Q 13.278 1.383 13.542 1.34 A 9.523 9.523 0 0 1 13.603 1.33 A 0.94 0.94 0 0 0 13.789 1.278 Q 14.009 1.195 14.291 0.993 A 0.979 0.979 0 0 1 14.497 0.899 Q 14.614 0.861 14.73 0.861 A 0.745 0.745 0 0 1 14.877 0.876 A 0.497 0.497 0 0 0 14.975 0.886 Q 15.219 0.886 15.463 0.642 Q 15.661 0.444 15.858 0.444 A 0.415 0.415 0 0 1 15.99 0.466 A 0.714 0.714 0 0 0 16.081 0.482 Q 16.309 0.508 16.724 0.441 A 5.788 5.788 0 0 0 16.752 0.437 A 32.615 32.615 0 0 0 16.999 0.395 Q 17.237 0.353 17.405 0.319 A 7.046 7.046 0 0 0 17.543 0.29 A 1.956 1.956 0 0 0 17.858 0.343 A 1.705 1.705 0 0 0 17.997 0.349 A 1.212 1.212 0 0 1 18.306 0.39 A 1.499 1.499 0 0 1 18.451 0.437 Q 18.796 0.579 19.071 0.636 A 1.883 1.883 0 0 0 19.301 0.671 A 1.538 1.538 0 0 0 19.558 0.7 A 1.736 1.736 0 0 0 19.608 0.7 A 1.599 1.599 0 0 1 19.861 0.72 A 1.436 1.436 0 0 1 19.916 0.73 Q 20.092 0.876 20.194 0.92 Q 20.297 0.964 20.37 1.023 A 0.892 0.892 0 0 1 20.443 1.088 A 1.203 1.203 0 0 1 20.517 1.169 A 0.913 0.913 0 0 1 20.556 1.22 Q 20.619 1.308 20.707 1.462 A 0.284 0.284 0 0 0 20.728 1.496 Q 20.752 1.531 20.795 1.577 A 1.647 1.647 0 0 0 20.839 1.623 A 4.4 4.4 0 0 0 21.001 1.777 A 4.895 4.895 0 0 0 21.059 1.828 A 1.454 1.454 0 0 1 21.135 1.9 Q 21.17 1.935 21.197 1.968 A 0.655 0.655 0 0 1 21.234 2.019 A 0.247 0.247 0 0 1 21.244 2.034 Q 21.279 2.097 21.225 2.105 A 0.126 0.126 0 0 1 21.206 2.107 A 0.067 0.067 0 0 0 21.176 2.138 Q 21.152 2.184 21.16 2.288 A 0.827 0.827 0 0 0 21.161 2.297 A 5.037 5.037 0 0 0 21.179 2.465 A 6.542 6.542 0 0 0 21.205 2.649 Q 21.234 2.839 21.278 3 Q 21.322 3.161 21.322 3.22 A 0.607 0.607 0 0 1 21.333 3.305 Q 21.339 3.423 21.308 3.571 A 2.22 2.22 0 0 1 21.279 3.691 Q 21.245 3.813 21.205 3.894 A 1.774 1.774 0 0 0 21.015 4.626 A 2.34 2.34 0 0 1 20.88 5.316 A 2.663 2.663 0 0 1 20.854 5.388 Q 20.795 5.593 20.634 5.798 A 2.051 2.051 0 0 0 20.478 6.025 A 1.622 1.622 0 0 0 20.385 6.208 A 1.351 1.351 0 0 0 20.194 6.706 A 3.47 3.47 0 0 1 20.063 7.233 Q 20.034 7.32 20.062 7.449 A 0.756 0.756 0 0 0 20.063 7.453 A 0.545 0.545 0 0 1 20.067 7.477 Q 20.086 7.585 20.033 7.585 A 0.647 0.647 0 0 1 19.971 7.622 Q 19.938 7.639 19.908 7.649 A 0.311 0.311 0 0 1 19.872 7.658 Q 19.799 7.673 19.74 7.732 Q 19.682 7.79 19.711 8.151 A 4.234 4.234 0 0 0 19.711 8.156 A 3.215 3.215 0 0 1 19.718 8.274 Q 19.73 8.557 19.682 8.728 Q 19.594 8.933 19.447 9.108 A 8.754 8.754 0 0 0 19.169 9.46 Q 19.037 9.636 18.964 9.841 A 0.568 0.568 0 0 0 18.931 10.033 Q 18.931 10.112 18.951 10.194 A 0.814 0.814 0 0 0 18.979 10.28 Q 19.008 10.398 18.92 10.485 A 0.576 0.576 0 0 1 18.817 10.566 Q 18.766 10.598 18.704 10.624 A 0.991 0.991 0 0 1 18.686 10.632 A 3.486 3.486 0 0 1 18.393 10.734 A 14.322 14.322 0 0 0 18.323 10.756 Q 18.224 10.786 18.158 10.808 Q 18.041 10.866 17.88 11.013 A 3.314 3.314 0 0 0 17.678 11.213 A 4.064 4.064 0 0 0 17.558 11.35 A 65.815 65.815 0 0 0 17.324 11.627 A 57.734 57.734 0 0 0 17.25 11.716 A 7.786 7.786 0 0 1 17.18 11.798 Q 17.082 11.914 17.016 11.98 A 0.751 0.751 0 0 1 16.565 12.266 A 0.97 0.97 0 0 1 16.532 12.273 A 1.327 1.327 0 0 0 16.116 12.424 A 1.235 1.235 0 0 0 15.99 12.507 Q 15.756 12.683 15.463 12.741 Q 15.316 12.771 15.155 12.712 Q 14.994 12.653 14.848 12.566 A 1.55 1.55 0 0 1 14.665 12.406 Q 14.562 12.3 14.496 12.185 A 0.417 0.417 0 0 1 14.44 12.08 Q 14.421 12.028 14.409 11.964 A 1.099 1.099 0 0 1 14.394 11.833 A 1.908 1.908 0 0 1 14.39 11.714 Q 14.39 11.584 14.407 11.445 A 2.578 2.578 0 0 1 14.423 11.335 A 27.327 27.327 0 0 1 14.467 11.079 A 23.027 23.027 0 0 1 14.511 10.837 A 3.084 3.084 0 0 1 14.543 10.686 Q 14.575 10.552 14.613 10.456 A 1.648 1.648 0 0 0 14.647 10.278 Q 14.659 10.184 14.666 10.075 A 4.073 4.073 0 0 0 14.672 9.841 L 14.672 9.226 A 0.428 0.428 0 0 1 14.76 8.962 A 3.393 3.393 0 0 1 14.855 8.841 A 4.482 4.482 0 0 1 14.965 8.713 Q 15.082 8.581 15.199 8.435 A 0.639 0.639 0 0 0 15.302 8.245 Q 15.33 8.165 15.344 8.07 A 1.118 1.118 0 0 0 15.346 8.054 A 0.332 0.332 0 0 1 15.469 7.856 A 0.47 0.47 0 0 1 15.521 7.819 A 1.01 1.01 0 0 1 15.686 7.739 A 0.826 0.826 0 0 1 15.814 7.702 Q 15.99 7.673 16.166 7.629 A 0.651 0.651 0 0 0 16.404 7.513 A 0.833 0.833 0 0 0 16.488 7.439 A 1.061 1.061 0 0 0 16.72 7.1 A 1.005 1.005 0 0 0 16.781 6.897 Q 16.84 6.589 17.104 6.355 Q 17.338 6.12 17.646 6.047 Q 17.953 5.974 18.188 5.739 A 12.945 12.945 0 0 0 18.803 5.08 Q 19.096 4.743 19.066 4.245 L 19.066 3.952 A 0.772 0.772 0 0 1 19.111 3.696 A 0.892 0.892 0 0 1 19.125 3.659 A 0.077 0.077 0 0 1 19.127 3.644 Q 19.135 3.606 19.177 3.501 A 4.241 4.241 0 0 1 19.184 3.483 A 2.824 2.824 0 0 0 19.281 3.196 A 3.085 3.085 0 0 0 19.286 3.176 A 1.051 1.051 0 0 0 19.308 3.078 Q 19.324 2.983 19.316 2.907 A 0.448 0.448 0 0 0 19.315 2.898 Q 19.301 2.78 19.213 2.78 A 1.371 1.371 0 0 0 18.671 2.443 A 1.16 1.16 0 0 1 18.464 2.353 Q 18.343 2.284 18.26 2.19 A 0.675 0.675 0 0 1 18.217 2.136 Q 18.173 2.07 18.081 2.021 A 0.7 0.7 0 0 0 18.012 1.989 A 0.956 0.956 0 0 0 17.917 2.043 Q 17.821 2.106 17.784 2.173 A 0.177 0.177 0 0 0 17.763 2.238 A 0.329 0.329 0 0 1 17.729 2.348 Q 17.689 2.43 17.602 2.517 A 0.418 0.418 0 0 1 17.526 2.577 Q 17.421 2.642 17.303 2.612 A 0.353 0.353 0 0 1 17.279 2.605 A 0.257 0.257 0 0 0 17.224 2.59 Q 17.072 2.566 16.767 2.663 Q 16.4 2.78 16.166 2.839 A 1.743 1.743 0 0 1 16.009 2.871 Q 15.913 2.886 15.829 2.886 A 0.875 0.875 0 0 1 15.756 2.883 A 56.051 56.051 0 0 0 15.484 2.861 A 63.085 63.085 0 0 0 15.39 2.854 A 1.676 1.676 0 0 0 15.261 2.849 Q 15.139 2.849 15.011 2.866 A 2.056 2.056 0 0 0 14.994 2.868 A 0.733 0.733 0 0 0 14.81 2.922 Q 14.733 2.954 14.653 3.005 A 1.527 1.527 0 0 0 14.555 3.073 Q 14.35 3.249 14.174 3.454 Q 13.998 3.689 13.734 3.82 A 1.79 1.79 0 0 0 13.266 4.157 A 0.488 0.488 0 0 1 13.153 4.242 A 0.398 0.398 0 0 1 13.002 4.289 Q 12.855 4.304 12.709 4.289 Q 12.563 4.275 12.401 4.289 A 0.373 0.373 0 0 0 12.178 4.391 A 0.529 0.529 0 0 0 12.123 4.45 A 1.105 1.105 0 0 1 12.064 4.504 Q 12.005 4.556 11.916 4.622 A 5.198 5.198 0 0 1 11.83 4.685 A 4.767 4.767 0 0 1 11.449 4.93 A 5.265 5.265 0 0 1 11.391 4.963 L 10.922 5.227 A 3.631 3.631 0 0 1 10.812 5.286 Q 10.706 5.341 10.631 5.369 A 0.598 0.598 0 0 1 10.57 5.388 Q 10.248 5.505 10.043 5.769 Q 9.863 6 9.706 6.074 A 0.408 0.408 0 0 1 9.662 6.091 Q 9.527 6.136 9.461 6.181 A 0.234 0.234 0 0 0 9.428 6.208 Q 9.34 6.267 9.018 6.281 A 1.065 1.065 0 0 0 8.7 6.342 A 0.921 0.921 0 0 0 8.461 6.472 A 0.391 0.391 0 0 0 8.401 6.522 Q 8.343 6.581 8.285 6.677 A 10.018 10.018 0 0 1 8.243 6.746 Q 8.191 6.831 8.151 6.892 A 3.021 3.021 0 0 1 8.139 6.911 A 3.405 3.405 0 0 1 7.479 7.922 A 2.246 2.246 0 0 1 6.469 8.552 A 0.78 0.78 0 0 0 6.283 8.623 A 0.606 0.606 0 0 0 6.103 8.772 A 1.355 1.355 0 0 0 5.944 9.018 A 1.661 1.661 0 0 0 5.883 9.152 L 5.707 9.592 Q 5.619 9.812 5.473 9.987 L 5.063 10.398 A 1.987 1.987 0 0 0 4.894 10.588 Q 4.81 10.697 4.754 10.805 A 1.13 1.13 0 0 0 4.726 10.866 A 9.313 9.313 0 0 1 4.627 11.083 Q 4.576 11.192 4.517 11.312 A 15.622 15.622 0 0 1 4.477 11.394 A 4.816 4.816 0 0 1 4.297 11.721 A 3.895 3.895 0 0 1 4.169 11.921 Q 4.008 12.155 3.803 12.419 A 1.009 1.009 0 0 0 3.612 12.683 A 3.865 3.865 0 0 0 3.48 12.976 A 0.645 0.645 0 0 0 3.437 13.151 Q 3.434 13.181 3.434 13.21 A 0.589 0.589 0 0 0 3.437 13.269 A 2.847 2.847 0 0 1 3.448 13.422 A 3.715 3.715 0 0 1 3.451 13.591 A 6.055 6.055 0 0 0 3.468 14.063 Q 3.487 14.297 3.525 14.496 A 2.658 2.658 0 0 0 3.598 14.792 A 0.677 0.677 0 0 0 3.864 15.143 Q 4.09 15.304 4.486 15.387 A 3.163 3.163 0 0 0 4.594 15.407 A 1.109 1.109 0 0 1 5.165 15.7 Q 5.414 15.935 5.766 15.935 A 1.358 1.358 0 0 1 6.381 16.081 Q 6.488 16.108 6.645 16.073 A 1.096 1.096 0 0 0 6.674 16.067 Q 6.85 16.023 6.938 15.905 A 2.48 2.48 0 0 1 7.377 15.554 A 6.667 6.667 0 0 0 7.816 15.253 A 7.26 7.26 0 0 0 7.846 15.232 Q 8.051 15.085 8.373 15.114 A 0.884 0.884 0 0 0 8.453 15.118 Q 8.674 15.118 8.881 15.005 A 1.131 1.131 0 0 0 8.988 14.939 Q 9.164 14.807 9.34 14.807 A 0.482 0.482 0 0 1 9.457 14.821 A 2.822 2.822 0 0 0 10.263 14.704 A 2.751 2.751 0 0 1 10.484 14.648 Q 10.736 14.596 10.922 14.616 Q 11.095 14.655 11.186 14.75 A 0.344 0.344 0 0 1 11.259 14.865 A 1.093 1.093 0 0 1 11.323 15.134 A 1.367 1.367 0 0 1 11.332 15.29 A 1.644 1.644 0 0 1 11.291 15.65 A 1.941 1.941 0 0 1 11.259 15.774 A 17.253 17.253 0 0 1 11.206 15.95 Q 11.164 16.088 11.127 16.198 Q 11.102 16.248 11.152 16.277 A 0.15 0.15 0 0 0 11.171 16.286 A 0.476 0.476 0 0 0 11.226 16.305 Q 11.267 16.316 11.303 16.316 A 0.077 0.077 0 0 1 11.324 16.319 Q 11.346 16.325 11.376 16.345 Q 11.415 16.371 11.374 16.396 A 0.142 0.142 0 0 1 11.362 16.403 A 0.18 0.18 0 0 1 11.36 16.428 Q 11.356 16.455 11.343 16.468 A 0.04 0.04 0 0 1 11.332 16.477 A 0.075 0.075 0 0 0 11.314 16.49 Q 11.298 16.505 11.283 16.533 A 0.379 0.379 0 0 0 11.273 16.55 A 5.601 5.601 0 0 1 11.162 16.685 Q 11.002 16.872 10.893 16.96 A 1.805 1.805 0 0 1 10.719 17.084 A 1.473 1.473 0 0 1 10.6 17.15 A 2.914 2.914 0 0 1 10.292 17.282 Q 10.131 17.341 9.896 17.517 A 10.62 10.62 0 0 1 9.754 17.601 A 8.812 8.812 0 0 1 9.618 17.678 A 2.433 2.433 0 0 1 9.34 17.81 A 0.653 0.653 0 0 1 9.21 17.839 Q 9.177 17.843 9.144 17.843 A 0.533 0.533 0 0 1 9.003 17.824 A 6.056 6.056 0 0 1 8.774 17.757 A 7.068 7.068 0 0 1 8.666 17.722 A 6.675 6.675 0 0 0 8.431 17.648 A 5.708 5.708 0 0 0 8.329 17.619 A 0.526 0.526 0 0 0 8.223 17.601 Q 8.119 17.595 8.021 17.634 A 0.382 0.382 0 0 0 7.967 17.657 Q 7.911 17.687 7.837 17.742 A 1.901 1.901 0 0 0 7.787 17.78 Q 7.652 17.888 7.592 17.947 A 0.765 0.765 0 0 0 7.582 17.956 A 1.862 1.862 0 0 1 7.398 18.06 Q 7.197 18.158 7.037 18.161 A 0.543 0.543 0 0 1 7.025 18.161 A 0.377 0.377 0 0 0 6.833 18.215 A 0.538 0.538 0 0 0 6.747 18.278 A 0.76 0.76 0 0 0 6.622 18.42 A 0.644 0.644 0 0 0 6.557 18.542 A 0.584 0.584 0 0 1 6.472 18.653 A 0.44 0.44 0 0 1 6.337 18.747 A 2.933 2.933 0 0 1 6.073 18.85 A 0.874 0.874 0 0 0 5.825 18.981 A 0.744 0.744 0 0 0 5.824 18.982 Q 5.738 19.046 5.668 19.173 A 1.144 1.144 0 0 0 5.619 19.275 A 2.579 2.579 0 0 1 5.325 19.849 A 3.124 3.124 0 0 1 5.165 20.066 A 3.293 3.293 0 0 1 4.806 20.447 A 2.64 2.64 0 0 1 4.506 20.681 A 4.349 4.349 0 0 1 4.312 20.795 Q 4.134 20.893 3.905 21.003 A 2.189 2.189 0 0 0 3.7 21.114 Q 3.494 21.242 3.393 21.384 Q 3.246 21.618 3.275 21.97 A 1.202 1.202 0 0 1 3.28 22.07 Q 3.28 22.358 3.138 22.626 A 1.378 1.378 0 0 1 3.129 22.644 A 1.447 1.447 0 0 1 3.01 22.839 Q 2.944 22.93 2.858 23.026 A 2.999 2.999 0 0 1 2.748 23.142 Q 2.657 23.233 2.617 23.319 A 0.323 0.323 0 0 0 2.587 23.42 A 2.425 2.425 0 0 0 2.573 23.622 A 2.815 2.815 0 0 0 2.572 23.698 A 2.943 2.943 0 0 1 2.558 23.991 A 0.378 0.378 0 0 1 2.514 24.131 Q 2.473 24.208 2.396 24.284 Q 2.26 24.448 2.39 24.611 A 0.458 0.458 0 0 0 2.411 24.636 A 1.373 1.373 0 0 1 2.625 24.941 A 1.268 1.268 0 0 1 2.66 25.017 Q 2.748 25.31 2.689 25.661 Q 2.666 25.776 2.734 25.928 A 0.96 0.96 0 0 0 2.777 26.013 A 1.549 1.549 0 0 0 3.005 26.315 A 1.809 1.809 0 0 0 3.085 26.394 A 2.264 2.264 0 0 0 3.366 26.616 A 1.98 1.98 0 0 0 3.48 26.687 Q 3.686 26.804 3.861 26.745 A 0.291 0.291 0 0 1 3.906 26.731 Q 4.001 26.71 4.075 26.77 A 0.278 0.278 0 0 1 4.11 26.804 A 2.921 2.921 0 0 1 4.18 26.886 Q 4.21 26.924 4.236 26.958 A 1.323 1.323 0 0 1 4.271 27.009 Q 4.44 27.317 4.702 27.317 A 0.457 0.457 0 0 0 4.726 27.317 A 2.539 2.539 0 0 0 5.048 27.278 A 3.338 3.338 0 0 0 5.326 27.214 Q 5.559 27.167 5.791 27.259 A 1.058 1.058 0 0 1 5.912 27.317 Q 6.205 27.478 6.527 27.478 A 1.888 1.888 0 0 0 6.762 27.463 A 1.888 1.888 0 0 1 6.996 27.448 Q 7.172 27.448 7.26 27.419 A 1.176 1.176 0 0 0 7.509 27.394 A 0.845 0.845 0 0 0 7.802 27.273 A 1.927 1.927 0 0 0 8.197 26.921 A 0.439 0.439 0 0 1 8.476 26.789 A 3.558 3.558 0 0 1 8.798 26.775 A 3.558 3.558 0 0 0 9.12 26.76 A 0.373 0.373 0 0 0 9.343 26.658 A 0.529 0.529 0 0 0 9.398 26.599 A 0.54 0.54 0 0 1 9.466 26.528 Q 9.507 26.492 9.55 26.473 A 0.241 0.241 0 0 1 9.647 26.452 A 0.671 0.671 0 0 1 9.808 26.473 A 0.889 0.889 0 0 1 9.926 26.511 Q 10.004 26.537 10.076 26.537 A 0.379 0.379 0 0 0 10.248 26.496 A 1.819 1.819 0 0 0 10.432 26.391 A 1.541 1.541 0 0 0 10.512 26.335 A 1.633 1.633 0 0 1 10.687 26.221 A 1.936 1.936 0 0 1 10.775 26.174 Q 10.918 26.103 11.088 26.128 A 0.653 0.653 0 0 1 11.098 26.13 A 0.768 0.768 0 0 0 11.183 26.138 Q 11.449 26.149 11.619 25.953 A 0.73 0.73 0 0 0 11.684 25.866 A 0.62 0.62 0 0 1 11.888 25.669 Q 12.006 25.601 12.156 25.59 A 0.795 0.795 0 0 1 12.182 25.588 Q 12.504 25.573 12.768 25.368 Q 13.002 25.192 13.178 24.958 Q 13.295 24.812 13.471 24.782 A 0.712 0.712 0 0 1 13.588 24.773 Q 13.705 24.773 13.822 24.812 A 0.964 0.964 0 0 0 13.926 24.826 Q 14.02 24.835 14.132 24.829 A 2.034 2.034 0 0 0 14.174 24.826 Q 14.379 24.812 14.496 24.694 A 4.417 4.417 0 0 0 14.871 24.326 A 3.999 3.999 0 0 0 14.921 24.27 A 1.106 1.106 0 0 1 15.223 24.028 A 1.46 1.46 0 0 1 15.434 23.933 A 44.841 44.841 0 0 1 15.587 23.863 Q 15.807 23.764 15.961 23.698 Q 16.147 23.619 16.356 23.347 A 2.583 2.583 0 0 0 16.4 23.288 A 0.471 0.471 0 0 1 16.504 23.165 Q 16.674 23.025 16.957 23.112 A 0.37 0.37 0 0 0 17.032 23.134 Q 17.138 23.152 17.235 23.098 A 1.493 1.493 0 0 0 17.399 22.993 A 1.268 1.268 0 0 0 17.47 22.937 A 25.704 25.704 0 0 0 17.576 22.845 A 31.795 31.795 0 0 0 17.689 22.746 Q 17.807 22.644 17.953 22.614 A 1.003 1.003 0 0 0 18.361 22.412 A 1.014 1.014 0 0 0 18.627 22.058 A 1.979 1.979 0 0 0 18.825 22.033 Q 19.057 21.991 19.184 21.897 A 0.659 0.659 0 0 1 19.568 21.765 A 0.816 0.816 0 0 1 19.594 21.765 A 0.263 0.263 0 0 0 19.648 21.758 Q 19.704 21.746 19.78 21.713 A 1.581 1.581 0 0 0 19.857 21.677 A 3.225 3.225 0 0 0 20.16 21.504 A 3.604 3.604 0 0 0 20.209 21.472 Q 20.385 21.355 20.546 21.252 A 1.867 1.867 0 0 1 20.603 21.217 Q 20.718 21.15 20.766 21.15 A 1.525 1.525 0 0 1 20.943 21.124 A 1.266 1.266 0 0 1 21.044 21.12 A 0.671 0.671 0 0 0 21.205 21.1 A 0.889 0.889 0 0 0 21.322 21.062 A 0.299 0.299 0 0 1 21.364 21.048 Q 21.464 21.024 21.534 21.094 A 0.247 0.247 0 0 1 21.557 21.12 A 1.627 1.627 0 0 1 21.662 21.278 A 1.378 1.378 0 0 1 21.703 21.355 A 0.129 0.129 0 0 1 21.709 21.386 Q 21.716 21.471 21.63 21.618 A 1.872 1.872 0 0 1 21.487 21.827 A 2.381 2.381 0 0 1 21.366 21.97 A 11.425 11.425 0 0 1 21.209 22.138 A 9.253 9.253 0 0 1 21.059 22.292 A 1.639 1.639 0 0 1 20.989 22.358 Q 20.921 22.419 20.868 22.448 A 0.261 0.261 0 0 1 20.824 22.468 Q 20.678 22.526 20.561 22.629 A 0.644 0.644 0 0 0 20.385 22.878 A 1.798 1.798 0 0 1 19.974 23.564 Q 19.627 23.918 19.066 24.05 A 0.509 0.509 0 0 0 18.949 24.083 A 0.353 0.353 0 0 0 18.803 24.196 A 2.79 2.79 0 0 0 18.704 24.337 A 3.512 3.512 0 0 0 18.627 24.46 A 7.123 7.123 0 0 1 18.495 24.672 A 6.359 6.359 0 0 1 18.451 24.738 A 0.712 0.712 0 0 1 18.253 24.935 A 0.836 0.836 0 0 1 18.217 24.958 A 2.084 2.084 0 0 1 17.544 25.159 A 2.544 2.544 0 0 1 17.294 25.178 A 1.402 1.402 0 0 0 16.822 25.269 A 1.245 1.245 0 0 0 16.43 25.515 Q 16.166 25.749 16.034 26.086 A 1.055 1.055 0 0 1 15.824 26.426 A 0.986 0.986 0 0 1 15.609 26.599 Q 15.321 26.772 14.976 26.718 A 1.14 1.14 0 0 1 14.965 26.716 A 0.932 0.932 0 0 0 14.811 26.703 Q 14.553 26.703 14.329 26.856 A 1.018 1.018 0 0 0 14.32 26.862 Q 14.203 26.921 14.086 27.067 Q 13.969 27.214 13.91 27.36 A 0.559 0.559 0 0 1 13.78 27.484 A 0.76 0.76 0 0 1 13.661 27.551 A 0.875 0.875 0 0 1 13.513 27.603 A 0.652 0.652 0 0 1 13.354 27.624 A 1.401 1.401 0 0 0 13.237 27.619 A 1.333 1.333 0 0 0 12.68 27.741 A 2.811 2.811 0 0 1 12.176 27.917 A 2.524 2.524 0 0 1 12.035 27.946 Z M 89.115 24.021 L 88.852 23.786 L 88.793 23.845 A 11.676 11.676 0 0 0 88.668 23.944 Q 88.501 24.077 88.384 24.182 A 3.842 3.842 0 0 0 88.368 24.196 Q 88.207 24.343 88.046 24.504 A 5.031 5.031 0 0 0 87.738 24.841 A 11.902 11.902 0 0 0 87.62 24.985 Q 87.568 25.05 87.509 25.124 A 24.865 24.865 0 0 0 87.387 25.28 A 18.229 18.229 0 0 1 86.919 25.841 A 21.707 21.707 0 0 1 86.61 26.189 A 2.331 2.331 0 0 1 86.036 26.656 A 2.099 2.099 0 0 1 85.629 26.833 A 2.583 2.583 0 0 0 85.567 26.897 Q 85.534 26.932 85.506 26.965 A 1.405 1.405 0 0 0 85.482 26.994 A 0.222 0.222 0 0 1 85.422 27.046 Q 85.392 27.063 85.354 27.077 A 0.591 0.591 0 0 1 85.277 27.097 A 0.466 0.466 0 0 1 85.142 27.12 Q 85.024 27.123 84.885 27.074 A 1.049 1.049 0 0 1 84.867 27.067 A 1.238 1.238 0 0 1 84.667 26.972 A 0.922 0.922 0 0 1 84.486 26.833 A 1.096 1.096 0 0 0 84.138 26.887 A 0.977 0.977 0 0 0 83.915 26.994 A 2.161 2.161 0 0 0 83.586 27.257 A 2.583 2.583 0 0 0 83.446 27.404 Q 83.227 27.653 83.036 27.917 A 2.141 2.141 0 0 1 82.767 28.225 A 1.841 1.841 0 0 1 82.611 28.357 Q 82.143 28.181 81.747 28.298 A 32.208 32.208 0 0 1 80.971 28.518 A 2.554 2.554 0 0 1 80.304 28.607 A 2.478 2.478 0 0 1 80.209 28.606 A 0.781 0.781 0 0 1 79.864 28.505 Q 79.747 28.442 79.63 28.338 A 1.991 1.991 0 0 1 79.447 28.151 A 48.958 48.958 0 0 1 79.286 27.309 A 36.875 36.875 0 0 1 79.154 26.54 A 40.791 40.791 0 0 1 79.044 25.94 A 34.818 34.818 0 0 1 78.949 25.368 A 27.502 27.502 0 0 1 78.919 25.175 Q 78.866 24.82 78.862 24.711 A 0.44 0.44 0 0 1 78.861 24.694 Q 78.994 24.561 78.994 24.343 A 0.757 0.757 0 0 0 78.993 24.299 Q 78.981 24.091 78.938 23.935 A 1.142 1.142 0 0 0 78.92 23.874 Q 78.861 23.845 78.861 23.816 A 0.035 0.035 0 0 0 78.854 23.795 Q 78.845 23.782 78.825 23.769 A 0.252 0.252 0 0 0 78.803 23.757 Q 78.949 23.64 79.022 23.464 Q 79.096 23.288 79.242 23.171 A 21.803 21.803 0 0 0 79.153 22.938 Q 79.106 22.817 79.053 22.682 A 35.849 35.849 0 0 0 79.037 22.644 A 1.612 1.612 0 0 1 78.927 22.204 A 1.471 1.471 0 0 1 78.92 22.058 A 1.673 1.673 0 0 1 78.955 21.971 Q 79.009 21.849 79.056 21.809 A 0.093 0.093 0 0 1 79.081 21.794 A 0.568 0.568 0 0 1 79.122 21.78 Q 79.212 21.752 79.418 21.706 A 2.355 2.355 0 0 0 79.358 21.469 A 2.118 2.118 0 0 0 79.345 21.428 Q 79.302 21.299 79.329 21.157 A 0.644 0.644 0 0 1 79.33 21.15 A 1.1 1.1 0 0 1 79.363 20.875 A 0.891 0.891 0 0 1 79.462 20.637 A 10.933 10.933 0 0 1 79.74 20.197 A 3.152 3.152 0 0 0 79.951 19.827 A 3.615 3.615 0 0 0 80.004 19.714 A 1.321 1.321 0 0 0 80.099 19.39 A 1.8 1.8 0 0 0 80.121 19.099 L 80.121 18.952 A 1.205 1.205 0 0 0 80.323 18.937 Q 80.43 18.918 80.512 18.879 A 0.443 0.443 0 0 0 80.707 18.703 A 1.294 1.294 0 0 0 80.861 18.288 A 1.585 1.585 0 0 0 80.883 18.132 A 7.115 7.115 0 0 0 80.912 17.487 A 0.931 0.931 0 0 1 80.927 17.314 Q 80.945 17.218 80.986 17.144 A 0.428 0.428 0 0 1 81.088 17.019 Q 81.192 16.914 81.285 16.914 A 0.162 0.162 0 0 1 81.308 16.916 Q 81.386 16.927 81.49 16.93 A 2.632 2.632 0 0 0 81.557 16.931 A 5.248 5.248 0 0 0 81.637 16.835 Q 81.711 16.744 81.755 16.68 A 0.84 0.84 0 0 0 81.791 16.623 A 0.162 0.162 0 0 0 81.808 16.579 Q 81.83 16.48 81.777 16.281 A 1.967 1.967 0 0 0 81.762 16.228 A 0.776 0.776 0 0 0 81.887 16.218 Q 81.953 16.207 82.007 16.184 A 0.377 0.377 0 0 0 82.084 16.14 A 0.624 0.624 0 0 0 82.238 15.971 A 0.766 0.766 0 0 0 82.274 15.905 L 82.421 15.612 A 1.009 1.009 0 0 1 82.611 15.349 Q 82.611 14.616 82.992 14.323 A 3.463 3.463 0 0 1 83.708 13.902 A 3.957 3.957 0 0 1 83.856 13.84 A 8.564 8.564 0 0 0 84.763 13.419 A 9.378 9.378 0 0 0 84.823 13.386 Q 85.275 13.14 85.509 12.536 A 2.638 2.638 0 0 0 85.541 12.448 Q 85.751 12.578 85.926 12.578 A 0.434 0.434 0 0 0 86.186 12.492 A 5.052 5.052 0 0 0 86.684 12.082 A 1.214 1.214 0 0 1 87.051 11.842 A 1.143 1.143 0 0 1 87.211 11.789 A 0.336 0.336 0 0 1 87.293 11.779 Q 87.512 11.779 87.804 12.047 A 2.58 2.58 0 0 1 87.943 12.185 A 1.02 1.02 0 0 1 88.075 11.907 Q 88.263 11.638 88.614 11.602 A 1.035 1.035 0 0 1 88.661 11.599 A 1.989 1.989 0 0 1 88.769 11.596 A 1.667 1.667 0 0 1 89.643 11.833 L 89.643 11.862 L 89.672 11.862 A 1.167 1.167 0 0 1 90.025 11.986 A 0.967 0.967 0 0 1 90.375 12.317 A 3.83 3.83 0 0 1 90.68 12.902 A 4.5 4.5 0 0 1 90.771 13.137 A 14.135 14.135 0 0 0 91.122 14.03 A 1.807 1.807 0 0 0 91.414 14.501 A 1.609 1.609 0 0 0 91.664 14.733 A 61.489 61.489 0 0 0 92.001 13.181 Q 92.162 12.39 92.543 11.687 A 0.766 0.766 0 0 0 92.633 11.781 Q 92.853 11.971 93.092 11.809 A 0.605 0.605 0 0 0 93.1 11.804 L 93.07 11.745 A 1.993 1.993 0 0 1 93.141 11.207 A 1.742 1.742 0 0 1 93.261 10.896 A 52.843 52.843 0 0 1 93.642 10.149 Q 93.832 9.782 93.876 9.387 A 0.872 0.872 0 0 0 93.881 9.29 Q 93.881 9.016 93.715 8.695 A 2.407 2.407 0 0 0 93.598 8.493 A 1.325 1.325 0 0 0 93.962 8.327 A 1.068 1.068 0 0 0 94.315 7.937 A 4.189 4.189 0 0 0 94.628 7.178 A 4.731 4.731 0 0 0 94.667 7.043 Q 94.799 6.56 94.96 6.062 A 2.104 2.104 0 0 1 95.408 5.279 A 2.059 2.059 0 0 1 95.473 5.212 A 1.068 1.068 0 0 0 95.458 5.036 A 1.068 1.068 0 0 1 95.443 4.86 Q 95.473 4.626 95.619 4.45 A 5.105 5.105 0 0 1 95.855 4.187 A 5.782 5.782 0 0 1 95.941 4.099 Q 96.117 3.923 96.249 3.703 A 0.747 0.747 0 0 0 96.344 3.438 Q 96.365 3.31 96.352 3.161 A 2.866 2.866 0 0 0 96.58 2.811 Q 96.685 2.623 96.781 2.397 A 5.778 5.778 0 0 0 96.879 2.15 A 15.453 15.453 0 0 1 97.247 1.247 A 13.556 13.556 0 0 1 97.377 0.964 A 3.148 3.148 0 0 1 97.585 0.589 Q 97.707 0.402 97.844 0.262 A 1.599 1.599 0 0 1 97.992 0.129 Q 98.344 -0.149 98.9 0.173 A 2.014 2.014 0 0 1 98.964 0.41 Q 99.007 0.622 98.988 0.803 Q 98.959 1.081 98.666 1.374 A 4.871 4.871 0 0 1 98.767 1.478 Q 98.859 1.575 98.916 1.65 A 1.311 1.311 0 0 1 98.93 1.667 Q 98.842 2.575 98.593 3.469 A 689.552 689.552 0 0 0 98.109 5.212 L 98.227 5.329 L 98.344 5.446 A 8.457 8.457 0 0 0 97.772 6.369 A 7.122 7.122 0 0 0 97.538 6.853 A 11.492 11.492 0 0 0 97.15 7.875 A 13.484 13.484 0 0 0 96.996 8.376 Q 96.908 8.698 96.835 9.05 A 4.14 4.14 0 0 1 96.726 9.466 A 3.411 3.411 0 0 1 96.645 9.694 A 7.586 7.586 0 0 1 96.483 9.998 A 10.023 10.023 0 0 1 96.293 10.324 A 6.554 6.554 0 0 0 96.039 10.781 A 5.572 5.572 0 0 0 95.941 10.983 Q 95.619 11.657 95.37 12.346 A 58.204 58.204 0 0 0 94.887 13.737 A 66.445 66.445 0 0 1 94.286 15.407 A 11.971 11.971 0 0 1 93.539 17.019 L 93.539 17.487 A 1.013 1.013 0 0 1 93.51 17.658 Q 93.459 17.848 93.334 17.942 A 2.143 2.143 0 0 1 93.046 18.123 A 2.499 2.499 0 0 1 92.938 18.176 A 1.535 1.535 0 0 0 92.663 18.343 A 1.921 1.921 0 0 0 92.514 18.469 A 0.74 0.74 0 0 0 92.374 18.651 Q 92.323 18.742 92.284 18.858 A 1.958 1.958 0 0 0 92.221 19.098 L 92.221 19.128 L 92.25 19.157 A 2.296 2.296 0 0 1 92.379 19.513 Q 92.439 19.736 92.439 19.946 A 1.388 1.388 0 0 1 92.382 20.344 Q 92.221 20.886 92.016 21.399 A 4.652 4.652 0 0 0 91.789 22.128 A 4.072 4.072 0 0 0 91.737 22.409 Q 91.675 22.831 92.002 23.274 A 2.28 2.28 0 0 0 92.133 23.435 A 2.297 2.297 0 0 0 92.13 23.549 Q 92.13 24.054 92.367 24.358 A 2.629 2.629 0 0 0 92.982 24.929 A 7.687 7.687 0 0 0 93.7 25.354 A 1.589 1.589 0 0 1 93.983 25.539 A 1.168 1.168 0 0 1 94.242 25.837 A 2.422 2.422 0 0 1 94.641 25.512 A 2.088 2.088 0 0 1 94.872 25.383 A 3.825 3.825 0 0 1 95.441 25.163 A 3.466 3.466 0 0 1 95.546 25.134 Q 95.883 25.046 96.22 24.973 A 5.092 5.092 0 0 0 96.879 24.782 Q 97.515 24.611 97.824 24.379 A 1.029 1.029 0 0 0 97.934 24.284 A 4.299 4.299 0 0 0 98.033 24.182 Q 98.227 23.975 98.227 23.903 A 0.968 0.968 0 0 1 98.259 23.709 Q 98.29 23.599 98.348 23.521 A 0.441 0.441 0 0 1 98.534 23.376 A 2.08 2.08 0 0 1 98.855 23.272 A 2.819 2.819 0 0 1 99.179 23.215 A 6.408 6.408 0 0 0 99.911 23.083 A 0.78 0.78 0 0 0 100.422 22.702 A 1.022 1.022 0 0 0 100.453 22.644 A 0.74 0.74 0 0 0 100.52 22.647 Q 100.757 22.647 100.952 22.49 A 0.916 0.916 0 0 0 101.024 22.424 Q 101.273 22.175 101.479 21.911 A 3.551 3.551 0 0 1 101.677 21.676 Q 101.782 21.563 101.887 21.473 A 1.952 1.952 0 0 1 101.889 21.472 Q 102.072 21.315 102.278 21.461 A 0.63 0.63 0 0 1 102.328 21.501 A 26.573 26.573 0 0 1 101.937 22.352 Q 101.547 23.16 101.205 23.697 A 7.365 7.365 0 0 1 101.156 23.772 A 6.754 6.754 0 0 1 100.567 24.549 A 5.313 5.313 0 0 1 99.999 25.105 Q 99.369 25.632 98.549 26.086 A 16.9 16.9 0 0 0 97.94 26.441 Q 97.628 26.632 97.275 26.862 A 40.234 40.234 0 0 0 96.527 27.36 A 3.721 3.721 0 0 0 96.007 27.43 Q 95.753 27.482 95.48 27.568 A 5.964 5.964 0 0 0 95.443 27.58 A 3.627 3.627 0 0 0 94.886 27.812 A 2.815 2.815 0 0 0 94.447 28.093 Q 93.568 28.005 92.836 27.712 Q 92.104 27.419 91.459 26.775 A 2.108 2.108 0 0 1 91.195 26.452 A 2.108 2.108 0 0 0 90.932 26.13 Q 90.617 25.758 90.526 25.47 A 0.957 0.957 0 0 1 90.521 25.456 Q 90.462 25.259 90.417 24.983 A 7.3 7.3 0 0 1 90.375 24.694 A 4.13 4.13 0 0 0 90.3 24.346 Q 90.21 24.006 90.078 23.804 A 0.954 0.954 0 0 0 90.023 23.728 Q 89.789 23.435 89.115 24.021 Z M 99.955 24.401 L 100.688 21.911 A 37.782 37.782 0 0 1 100.75 21.666 A 49.106 49.106 0 0 1 100.819 21.399 Q 100.893 21.12 100.98 20.857 A 3.323 3.323 0 0 1 101.166 20.45 A 3.716 3.716 0 0 1 101.2 20.388 Q 101.332 20.153 101.479 19.919 A 6.538 6.538 0 0 1 101.895 19.318 A 5.889 5.889 0 0 1 101.977 19.216 A 1.875 1.875 0 0 1 102.211 18.974 Q 102.365 18.843 102.531 18.769 A 1.17 1.17 0 0 1 102.548 18.762 Q 102.855 18.63 103.178 18.762 A 0.859 0.859 0 0 1 103.399 18.899 Q 103.582 19.051 103.764 19.33 A 3.439 3.439 0 0 1 103.822 19.421 Q 103.705 20.124 103.573 20.9 Q 103.441 21.677 103.236 22.439 A 9.783 9.783 0 0 1 102.724 23.889 Q 102.416 24.577 101.947 25.134 Q 102.135 25.579 102.135 25.968 A 1.539 1.539 0 0 1 102.123 26.159 A 4.713 4.713 0 0 1 101.918 27.067 Q 101.771 27.507 101.596 27.961 Q 101.445 28.35 101.445 28.793 A 2.689 2.689 0 0 0 101.449 28.942 A 4.798 4.798 0 0 1 101.292 29.093 A 6.339 6.339 0 0 1 101.112 29.25 A 0.46 0.46 0 0 0 101.025 29.346 Q 100.946 29.465 100.974 29.615 A 0.495 0.495 0 0 0 100.98 29.646 Q 101.238 29.874 101.83 29.629 A 2.731 2.731 0 0 0 101.859 29.616 A 9.262 9.262 0 0 0 102.497 29.312 A 12.596 12.596 0 0 0 103.178 28.928 A 55.418 55.418 0 0 0 104.54 28.078 A 7.747 7.747 0 0 1 104.844 27.891 Q 105.274 27.642 105.516 27.596 A 0.722 0.722 0 0 1 105.521 27.595 Q 105.436 27.51 105.338 27.397 A 5.813 5.813 0 0 1 105.331 27.39 A 0.255 0.255 0 0 1 105.266 27.217 Q 105.266 27.186 105.272 27.153 A 0.445 0.445 0 0 1 105.287 27.097 A 14.03 14.03 0 0 1 105.765 26.859 Q 106.196 26.655 106.532 26.54 A 1344.694 1344.694 0 0 0 107.277 26.285 A 1181.007 1181.007 0 0 0 107.514 26.203 A 4.593 4.593 0 0 0 108.105 25.95 A 5.613 5.613 0 0 0 108.466 25.749 A 4.353 4.353 0 0 0 108.817 25.51 Q 108.994 25.377 109.188 25.21 A 10.739 10.739 0 0 0 109.594 24.841 A 2.176 2.176 0 0 1 110.678 24.211 Q 111.322 24.05 111.967 24.138 A 77.038 77.038 0 0 0 111.201 24.885 A 65.356 65.356 0 0 0 110.487 25.603 Q 109.799 26.306 109.096 26.965 Q 108.393 27.624 107.646 28.239 Q 106.898 28.855 105.99 29.411 A 10.516 10.516 0 0 1 105.166 29.909 A 9.649 9.649 0 0 1 105.111 29.939 A 10.204 10.204 0 0 1 104.359 30.3 A 11.484 11.484 0 0 1 104.174 30.378 L 103.881 30.495 L 103.588 30.612 Q 103.412 30.7 103.002 31.008 Q 102.664 31.261 102.445 31.406 A 4.357 4.357 0 0 1 102.357 31.462 A 34.096 34.096 0 0 0 101.376 32.111 A 39.35 39.35 0 0 0 101.024 32.356 A 8.248 8.248 0 0 0 99.779 33.425 A 4.915 4.915 0 0 0 98.886 34.729 A 3.069 3.069 0 0 0 98.602 35.91 Q 98.593 36.113 98.607 36.325 A 1.835 1.835 0 0 0 98.158 36.653 A 1.58 1.58 0 0 0 97.875 37.043 A 3.313 3.313 0 0 0 97.553 38.025 A 12.788 12.788 0 0 0 97.421 39.094 A 10.538 10.538 0 0 1 97.349 39.743 A 8.65 8.65 0 0 1 97.289 40.105 A 3.285 3.285 0 0 1 97.237 40.328 Q 97.207 40.438 97.171 40.532 A 1.748 1.748 0 0 1 97.143 40.603 A 31.158 31.158 0 0 1 97.06 40.793 Q 97.018 40.891 96.97 40.998 A 53.497 53.497 0 0 1 96.938 41.071 Q 96.886 41.149 96.88 41.203 A 0.129 0.129 0 0 0 96.879 41.218 A 0.249 0.249 0 0 1 96.862 41.308 A 0.306 0.306 0 0 1 96.85 41.335 Q 96.673 41.662 96.519 41.914 A 7.716 7.716 0 0 1 96.469 41.994 A 0.618 0.618 0 0 0 96.38 42.242 Q 96.35 42.456 96.439 42.741 A 0.955 0.955 0 0 0 96.282 42.78 Q 96.203 42.808 96.145 42.849 A 0.337 0.337 0 0 0 96.015 43.02 Q 95.941 43.239 95.956 43.532 A 12.03 12.03 0 0 1 95.971 44.133 A 0.741 0.741 0 0 1 95.942 44.345 A 0.561 0.561 0 0 1 95.766 44.616 A 0.841 0.841 0 0 0 95.617 44.629 Q 95.462 44.656 95.37 44.748 A 1.05 1.05 0 0 0 95.203 44.968 A 1.276 1.276 0 0 0 95.15 45.07 Q 95.063 45.261 94.989 45.466 Q 94.916 45.671 94.799 45.817 A 3.952 3.952 0 0 1 94.514 46.917 A 3.633 3.633 0 0 1 94.374 47.209 Q 94.037 47.839 93.642 48.454 Q 93.246 49.069 92.895 49.699 A 4.102 4.102 0 0 0 92.426 51.062 A 101.401 101.401 0 0 0 91.953 51.751 A 112.16 112.16 0 0 0 91.884 51.853 A 4.158 4.158 0 0 1 91.433 52.41 A 3.696 3.696 0 0 1 91.269 52.57 A 2.935 2.935 0 0 1 90.521 53.068 Q 90.111 53.259 89.555 53.2 A 3.671 3.671 0 0 1 87.991 52.659 A 4.246 4.246 0 0 1 87.943 52.629 A 6.96 6.96 0 0 1 86.578 51.486 A 7.721 7.721 0 0 1 86.537 51.442 A 10.046 10.046 0 0 1 85.395 49.934 A 16.234 16.234 0 0 1 84.94 49.154 A 11.978 11.978 0 0 1 84.574 48.425 A 0.88 0.88 0 0 0 84.7 48.269 A 0.601 0.601 0 0 0 84.794 47.985 Q 84.809 47.751 84.721 47.502 Q 84.633 47.253 84.501 47.019 A 1.399 1.399 0 0 1 84.385 46.755 A 1.153 1.153 0 0 1 84.34 46.55 Q 84.838 45.817 84.94 44.939 A 11.503 11.503 0 0 1 85.277 43.21 A 2.905 2.905 0 0 0 85.986 42.494 A 3.717 3.717 0 0 0 86.244 42.067 Q 86.505 41.566 86.505 41.065 A 1.976 1.976 0 0 0 86.449 40.603 Q 86.889 40.017 87.519 39.489 L 88.778 38.435 Q 89.408 37.907 89.95 37.336 Q 90.492 36.765 90.756 36.091 Q 91.017 36.122 91.222 36.076 A 0.84 0.84 0 0 0 91.547 35.93 Q 91.84 35.71 92.104 35.446 Q 92.367 35.183 92.646 34.934 A 1.194 1.194 0 0 1 93.086 34.687 A 1.619 1.619 0 0 1 93.363 34.626 A 3.028 3.028 0 0 1 93.544 34.342 A 4.016 4.016 0 0 1 93.744 34.084 A 2.129 2.129 0 0 1 94.19 33.681 A 1.982 1.982 0 0 1 94.271 33.63 A 1.255 1.255 0 0 1 94.596 33.49 A 1.074 1.074 0 0 1 94.872 33.454 A 0.806 0.806 0 0 1 95.192 33.524 Q 95.305 33.572 95.419 33.654 A 1.639 1.639 0 0 1 95.502 33.718 A 0.922 0.922 0 0 0 95.609 33.736 Q 95.787 33.756 95.925 33.692 A 0.538 0.538 0 0 0 96.103 33.557 A 4.126 4.126 0 0 0 96.498 33.029 A 2.189 2.189 0 0 1 96.632 32.839 Q 96.745 32.696 96.864 32.605 A 0.231 0.231 0 0 1 97.009 32.556 Q 97.147 32.556 97.335 32.695 A 1.554 1.554 0 0 1 97.406 32.751 A 0.922 0.922 0 0 0 97.593 32.589 A 0.709 0.709 0 0 0 97.743 32.312 A 0.577 0.577 0 0 0 97.765 32.157 Q 97.765 31.97 97.641 31.784 A 62.202 62.202 0 0 0 98.856 28.108 Q 99.398 26.276 99.955 24.401 Z M 41.977 19.86 L 41.039 20.857 L 40.482 22.526 A 9.218 9.218 0 0 1 39.885 22.925 A 10.235 10.235 0 0 1 39.794 22.981 Q 39.428 23.2 39.135 23.435 Q 38.813 23.698 38.563 24.021 A 3.365 3.365 0 0 1 38.165 24.455 A 2.996 2.996 0 0 1 38.021 24.577 A 2.591 2.591 0 0 1 37.582 24.859 A 3.175 3.175 0 0 1 37.333 24.973 A 4.743 4.743 0 0 0 36.835 25.209 A 4.018 4.018 0 0 0 36.615 25.339 A 13.585 13.585 0 0 0 35.646 25.977 A 12.288 12.288 0 0 0 35.517 26.071 A 17.146 17.146 0 0 1 34.447 26.804 A 0.995 0.995 0 0 0 34.357 26.845 Q 34.276 26.887 34.228 26.936 A 0.436 0.436 0 0 1 34.162 26.989 Q 34.127 27.012 34.083 27.034 A 1.032 1.032 0 0 1 34.008 27.067 A 0.325 0.325 0 0 1 33.954 27.094 Q 33.823 27.147 33.434 27.252 A 23.036 23.036 0 0 1 33.246 27.302 Q 32.572 27.478 31.767 27.697 Q 30.961 27.917 30.258 28.093 A 41.563 41.563 0 0 1 30.092 28.134 Q 29.653 28.242 29.516 28.263 A 0.361 0.361 0 0 1 29.467 28.269 A 9.812 9.812 0 0 1 28.383 28.327 A 21.178 21.178 0 0 0 27.27 28.357 L 26.83 28.62 A 6.013 6.013 0 0 0 26.268 28.259 A 6.817 6.817 0 0 0 26.127 28.181 A 3.948 3.948 0 0 1 25.78 27.972 A 2.902 2.902 0 0 1 25.482 27.741 A 6.415 6.415 0 0 1 25.116 27.383 A 7.736 7.736 0 0 1 24.896 27.141 A 22.922 22.922 0 0 1 24.618 26.815 A 17.663 17.663 0 0 1 24.369 26.511 Q 24.223 26.101 24.076 25.705 A 6.482 6.482 0 0 1 23.877 25.072 A 5.794 5.794 0 0 1 23.842 24.929 L 23.695 23.816 A 50.255 50.255 0 0 1 23.596 22.765 A 45.858 45.858 0 0 1 23.593 22.732 Q 23.549 22.204 23.49 21.648 A 41.466 41.466 0 0 0 24.384 18.879 A 21.835 21.835 0 0 1 25.365 16.14 A 13.34 13.34 0 0 0 25.644 15.481 A 13.34 13.34 0 0 1 25.922 14.821 Q 26.098 14.47 26.303 14.162 A 4.469 4.469 0 0 0 26.654 13.532 Q 26.801 13.181 26.889 12.815 A 3.838 3.838 0 0 1 27.096 12.187 A 3.526 3.526 0 0 1 27.123 12.126 Q 27.19 11.991 27.326 11.762 A 15.87 15.87 0 0 1 27.416 11.613 A 34.269 34.269 0 0 1 27.628 11.269 A 39.656 39.656 0 0 1 27.855 10.91 A 79.31 79.31 0 0 0 28.31 10.192 Q 28.506 9.878 28.644 9.681 A 5.494 5.494 0 0 1 28.676 9.636 A 14.193 14.193 0 0 1 29.086 9.146 A 12.931 12.931 0 0 1 29.145 9.079 A 2.325 2.325 0 0 0 29.525 8.493 A 5.232 5.232 0 0 0 29.759 8.045 Q 29.925 7.686 30.082 7.233 A 10.028 10.028 0 0 1 30.36 6.516 A 7.572 7.572 0 0 1 30.668 5.886 A 7.263 7.263 0 0 1 31.503 4.67 A 12.997 12.997 0 0 0 32.396 3.483 A 13.912 13.912 0 0 0 33.013 2.539 A 16.281 16.281 0 0 0 33.246 2.136 L 34.535 1.198 L 35.121 1.784 L 36.527 1.55 L 37.406 2.868 A 486.966 486.966 0 0 0 37.348 3.306 Q 37.318 3.536 37.284 3.791 A 857.773 857.773 0 0 0 37.274 3.864 A 20.979 20.979 0 0 0 37.157 4.992 A 22.478 22.478 0 0 0 37.1 6.072 A 20.849 20.849 0 0 0 37.099 6.106 Q 37.084 6.648 37.143 7.058 A 5.937 5.937 0 0 1 36.915 7.717 A 7.439 7.439 0 0 1 36.718 8.156 A 5.132 5.132 0 0 1 36.391 8.733 A 4.018 4.018 0 0 1 36.088 9.138 L 35.971 10.72 L 34.799 11.775 L 34.652 13.269 L 33.656 14.441 Q 33.568 14.851 33.48 15.275 A 5.18 5.18 0 0 1 33.269 16.021 A 4.753 4.753 0 0 1 33.246 16.081 A 6.667 6.667 0 0 1 32.995 16.614 A 7.719 7.719 0 0 1 32.895 16.799 A 51.514 51.514 0 0 0 32.484 17.546 A 18.933 18.933 0 0 0 31.741 18.214 A 22.771 22.771 0 0 0 31.283 18.659 A 16.436 16.436 0 0 0 30.435 19.573 A 14.264 14.264 0 0 0 30.17 19.89 A 5.787 5.787 0 0 0 29.687 20.578 A 9.463 9.463 0 0 1 29.292 21.184 A 8.534 8.534 0 0 1 29.232 21.267 Q 28.471 22.233 27.592 23.083 A 49.043 49.043 0 0 0 25.863 24.841 L 26.508 25.983 A 23.716 23.716 0 0 0 27.768 26.364 Q 28.412 26.54 29.057 26.687 Q 29.308 26.636 29.625 26.575 A 129.267 129.267 0 0 1 29.73 26.555 A 14.286 14.286 0 0 0 30.318 26.428 A 16.246 16.246 0 0 0 30.521 26.379 Q 30.932 26.276 31.327 26.159 A 7.606 7.606 0 0 0 31.605 26.071 Q 31.74 26.026 31.854 25.98 A 3.595 3.595 0 0 0 31.986 25.925 A 7.097 7.097 0 0 0 32.451 25.718 Q 32.705 25.594 32.987 25.437 A 14.325 14.325 0 0 0 33.334 25.236 Q 34.096 24.782 34.623 24.431 A 277.005 277.005 0 0 0 36.527 23.23 A 25.774 25.774 0 0 0 38.373 21.941 A 8.411 8.411 0 0 0 38.935 21.477 Q 39.22 21.222 39.518 20.916 A 14.208 14.208 0 0 0 39.604 20.827 A 694.316 694.316 0 0 0 40.23 20.172 A 582.004 582.004 0 0 0 40.819 19.553 A 17.464 17.464 0 0 1 41.231 19.133 Q 41.437 18.931 41.625 18.762 A 8.633 8.633 0 0 1 41.845 18.571 Q 42.299 18.191 42.475 18.278 A 1.754 1.754 0 0 1 42.479 18.395 A 1.722 1.722 0 0 1 42.313 19.128 Q 42.15 19.481 42.019 19.768 A 72.831 72.831 0 0 0 41.977 19.86 Z M 81.029 24.489 L 78.48 26.423 A 14.124 14.124 0 0 0 78.315 26.424 Q 78.136 26.426 78.01 26.433 A 3.342 3.342 0 0 0 77.938 26.438 Q 77.768 26.451 77.633 26.476 A 2.024 2.024 0 0 0 77.602 26.482 A 1.033 1.033 0 0 0 77.468 26.518 Q 77.401 26.542 77.328 26.575 A 1.857 1.857 0 0 0 77.279 26.599 Q 77.104 26.687 76.811 26.862 A 1.557 1.557 0 0 1 76.717 27.073 Q 76.658 27.182 76.587 27.263 A 0.788 0.788 0 0 1 76.503 27.346 A 1.615 1.615 0 0 1 76.132 27.579 A 1.851 1.851 0 0 1 76.063 27.609 A 28.02 28.02 0 0 1 75.551 27.815 A 1.328 1.328 0 0 0 75.233 27.994 A 1.714 1.714 0 0 0 75.053 28.151 Q 72.826 28.503 71.127 27.155 A 2.344 2.344 0 0 1 70.771 26.844 A 2.192 2.192 0 0 1 70.761 26.833 A 2.331 2.331 0 0 0 70.407 26.52 A 2.576 2.576 0 0 0 70.395 26.511 Q 70.248 26.394 70.233 26.408 A 0.005 0.005 0 0 1 70.23 26.41 Q 70.211 26.41 70.132 26.314 A 2.74 2.74 0 0 1 70.102 26.276 A 1.354 1.354 0 0 1 69.908 25.859 A 1.817 1.817 0 0 1 69.853 25.559 A 7.19 7.19 0 0 0 69.721 24.738 A 1.546 1.546 0 0 0 69.548 24.29 A 1.389 1.389 0 0 0 69.384 24.065 Q 69.141 23.793 68.549 23.814 A 2.56 2.56 0 0 0 68.52 23.816 A 4.929 4.929 0 0 1 68.138 24.473 A 6.659 6.659 0 0 1 67.685 25.061 A 7.404 7.404 0 0 1 66.469 26.189 A 7.15 7.15 0 0 1 65.048 27.009 A 4.217 4.217 0 0 1 64.364 27.24 A 3.149 3.149 0 0 1 63.627 27.331 Q 63.393 28.005 62.821 28.342 A 4.942 4.942 0 0 1 61.605 28.855 Q 61.547 28.884 61.371 28.928 Q 61.213 28.967 61.173 28.971 A 0.076 0.076 0 0 1 61.166 28.972 A 1.625 1.625 0 0 1 61.073 28.976 Q 60.729 28.981 60.521 28.825 Q 60.287 28.65 60.082 28.444 Q 59.877 28.239 59.643 28.064 A 0.806 0.806 0 0 0 59.384 27.937 Q 59.271 27.904 59.136 27.893 A 1.711 1.711 0 0 0 58.998 27.888 Q 58.676 27.126 58.354 26.394 Q 58.031 25.661 57.885 24.9 A 0.766 0.766 0 0 0 58.013 24.812 Q 58.153 24.692 58.163 24.533 A 6.75 6.75 0 0 0 58.178 24.138 A 7.415 7.415 0 0 0 58.178 24.079 A 1.802 1.802 0 0 1 58.006 24.017 Q 57.838 23.945 57.76 23.858 A 0.239 0.239 0 0 1 57.694 23.713 A 0.829 0.829 0 0 1 57.693 23.658 Q 57.693 23.531 57.731 23.399 A 1.165 1.165 0 0 1 57.782 23.259 A 20.592 20.592 0 0 1 57.987 22.806 L 57.987 22.805 Q 58.087 22.591 57.896 22.447 A 0.514 0.514 0 0 0 57.885 22.439 A 11.537 11.537 0 0 1 58.91 18.982 A 7.452 7.452 0 0 1 61.166 16.198 A 1.647 1.647 0 0 1 61.122 16.03 Q 61.069 15.77 61.132 15.577 A 0.596 0.596 0 0 1 61.269 15.349 A 1.003 1.003 0 0 1 61.942 15.026 A 1.254 1.254 0 0 1 62.035 15.023 Q 62.381 15.023 62.704 15.217 A 0.714 0.714 0 0 1 63.056 15.732 A 1.034 1.034 0 0 1 63.07 15.905 A 0.966 0.966 0 0 1 63.08 16.042 A 0.991 0.991 0 0 1 63.041 16.316 A 10.219 10.219 0 0 1 62.982 16.513 A 8.276 8.276 0 0 1 62.924 16.696 Q 62.748 17.575 62.396 18.396 A 24.259 24.259 0 0 1 61.635 20.007 A 123.507 123.507 0 0 1 60.8 21.589 A 11.132 11.132 0 0 0 60.082 23.23 A 0.979 0.979 0 0 0 59.968 23.317 Q 59.768 23.499 59.836 23.697 A 0.375 0.375 0 0 0 59.848 23.728 Q 59.965 23.991 60.155 24.24 A 1.23 1.23 0 0 1 60.269 24.417 Q 60.325 24.524 60.347 24.627 A 0.66 0.66 0 0 1 60.36 24.724 A 0.192 0.192 0 0 1 60.361 24.736 Q 60.361 24.949 59.885 25.138 A 2.878 2.878 0 0 1 59.818 25.163 Q 59.656 25.543 59.869 25.834 A 0.775 0.775 0 0 0 59.906 25.881 A 3.849 3.849 0 0 1 60.227 26.311 A 3.33 3.33 0 0 1 60.346 26.511 A 1.859 1.859 0 0 0 60.576 26.525 A 1.688 1.688 0 0 0 60.8 26.511 A 0.454 0.454 0 0 0 61.062 26.379 A 0.71 0.71 0 0 0 61.166 26.247 A 1.057 1.057 0 0 0 61.31 26.329 Q 61.446 26.391 61.571 26.391 A 0.476 0.476 0 0 0 61.796 26.335 A 4.456 4.456 0 0 0 62.082 26.17 A 5.874 5.874 0 0 0 62.382 25.969 A 3.196 3.196 0 0 1 63.056 25.603 A 0.792 0.792 0 0 1 63.353 25.546 Q 63.576 25.546 63.832 25.662 A 1.777 1.777 0 0 1 63.891 25.691 A 1.597 1.597 0 0 0 64.162 25.325 A 1.904 1.904 0 0 0 64.228 25.192 A 7.48 7.48 0 0 1 64.469 24.702 A 6.803 6.803 0 0 1 64.506 24.636 A 1.502 1.502 0 0 1 64.776 24.281 A 1.386 1.386 0 0 1 64.872 24.196 A 0.577 0.577 0 0 1 65.098 24.088 Q 65.269 24.046 65.502 24.079 A 3.705 3.705 0 0 1 66.586 22.863 A 30.359 30.359 0 0 1 67.948 21.941 A 9.294 9.294 0 0 0 68.826 21.309 A 7.965 7.965 0 0 0 69.179 21.003 A 2.205 2.205 0 0 0 69.824 19.907 A 2.788 2.788 0 0 0 69.867 19.714 A 23.596 23.596 0 0 0 70.427 18.78 A 30.637 30.637 0 0 0 70.995 17.736 A 7.837 7.837 0 0 1 71.656 16.672 A 6.165 6.165 0 0 1 72.328 15.905 A 0.726 0.726 0 0 1 72.621 15.539 A 1.223 1.223 0 0 1 73.061 15.363 A 0.952 0.952 0 0 1 73.236 15.347 A 0.978 0.978 0 0 1 73.529 15.393 Q 73.764 15.466 73.939 15.642 A 2.202 2.202 0 0 1 73.953 15.885 Q 73.953 16.233 73.836 16.54 A 1.735 1.735 0 0 1 73.808 16.608 A 13.977 13.977 0 0 1 73.397 17.473 A 4.105 4.105 0 0 0 73.061 18.366 Q 72.948 18.816 73.133 19.402 A 3.173 3.173 0 0 0 73.148 19.45 A 9.268 9.268 0 0 1 72.541 19.769 A 8.131 8.131 0 0 1 72.343 19.86 A 6.659 6.659 0 0 0 71.784 20.14 A 5.799 5.799 0 0 0 71.61 20.241 A 2.148 2.148 0 0 0 71.024 20.769 A 1.523 1.523 0 0 0 70.818 21.136 Q 70.732 21.35 70.688 21.618 A 3.067 3.067 0 0 1 71.04 21.773 Q 71.515 22.02 71.625 22.351 A 2.879 2.879 0 0 1 71.762 23.051 A 3.408 3.408 0 0 1 71.771 23.303 Q 71.771 23.816 71.845 24.358 A 1.174 1.174 0 0 0 72.013 24.812 Q 72.114 24.977 72.271 25.14 A 3.07 3.07 0 0 0 72.592 25.427 A 3.89 3.89 0 0 1 72.646 25.468 Q 72.694 25.506 72.725 25.533 A 0.602 0.602 0 0 1 72.753 25.559 Q 72.797 25.603 72.943 25.661 A 0.987 0.987 0 0 0 73.092 25.694 Q 73.148 25.702 73.201 25.702 A 0.665 0.665 0 0 0 73.471 25.647 A 15.909 15.909 0 0 1 73.814 25.501 A 14.139 14.139 0 0 1 73.925 25.456 A 1.062 1.062 0 0 1 74.323 25.381 A 1.201 1.201 0 0 1 74.394 25.383 Q 74.643 25.398 74.965 25.749 Q 75.404 25.192 75.785 25.749 A 3.943 3.943 0 0 1 75.936 25.494 Q 76.191 25.101 76.413 25.022 A 0.374 0.374 0 0 1 76.43 25.017 A 1.542 1.542 0 0 1 76.755 24.955 Q 76.879 24.945 77.001 24.958 Q 77.279 24.987 77.572 24.9 Q 77.865 24.812 78.217 24.167 L 78.48 24.431 Q 78.651 23.976 78.89 23.976 A 0.256 0.256 0 0 1 78.905 23.977 Q 79.154 23.991 79.389 24.065 Q 79.597 24.13 79.76 24.079 A 0.461 0.461 0 0 0 79.799 24.065 A 0.18 0.18 0 0 0 79.883 23.982 Q 79.975 23.821 79.975 23.376 A 0.996 0.996 0 0 0 80.199 23.352 A 0.762 0.762 0 0 0 80.429 23.259 Q 80.619 23.142 80.81 22.995 A 2.009 2.009 0 0 1 81.202 22.761 A 2.239 2.239 0 0 1 81.234 22.746 Q 81.46 22.647 81.767 22.644 A 1.997 1.997 0 0 1 81.791 22.644 L 81.029 24.489 Z M 126.85 26.452 L 129.574 24.812 Q 129.26 25.35 129.058 25.725 A 14.022 14.022 0 0 0 128.944 25.94 A 5.737 5.737 0 0 1 128.766 26.261 Q 128.676 26.41 128.586 26.534 A 3.03 3.03 0 0 1 128.505 26.643 Q 128.285 26.921 128.007 27.141 Q 127.741 27.35 127.275 27.653 A 20.534 20.534 0 0 1 127.23 27.683 A 5.143 5.143 0 0 1 126.829 28.014 A 4.226 4.226 0 0 1 126.586 28.181 A 5.271 5.271 0 0 1 126.278 28.404 A 4.237 4.237 0 0 1 126.073 28.532 Q 125.867 28.654 125.731 28.674 A 0.353 0.353 0 0 1 125.678 28.679 A 0.482 0.482 0 0 1 125.561 28.664 A 0.482 0.482 0 0 0 125.443 28.65 A 3.842 3.842 0 0 0 125.188 28.658 A 3.393 3.393 0 0 0 125.106 28.664 Q 124.945 28.679 124.828 28.444 A 0.782 0.782 0 0 0 124.682 28.649 A 0.976 0.976 0 0 0 124.682 28.65 Q 124.623 28.767 124.564 28.869 Q 124.506 28.972 124.403 29.03 A 0.221 0.221 0 0 1 124.324 29.057 Q 124.252 29.067 124.156 29.04 A 0.721 0.721 0 0 1 124.125 29.03 L 123.979 28.855 L 123.539 29.235 A 17.422 17.422 0 0 0 122.567 28.785 A 14.11 14.11 0 0 0 121.972 28.547 A 7.335 7.335 0 0 1 121.121 28.17 A 6.025 6.025 0 0 1 120.639 27.888 A 3.528 3.528 0 0 1 119.643 26.906 A 2.916 2.916 0 0 1 119.353 26.356 Q 119.24 26.077 119.157 25.739 A 6.487 6.487 0 0 1 119.057 25.251 Q 118.91 25.075 118.734 24.943 A 0.442 0.442 0 0 0 118.463 24.852 Q 118.396 24.852 118.324 24.87 A 3.395 3.395 0 0 1 117.771 25.583 A 3.129 3.129 0 0 1 117.621 25.72 A 14.388 14.388 0 0 0 116.91 26.374 A 16.017 16.017 0 0 0 116.801 26.482 A 1.238 1.238 0 0 0 116.569 26.798 A 1.171 1.171 0 0 0 116.566 26.804 A 1.236 1.236 0 0 1 116.333 27.125 A 1.543 1.543 0 0 1 116.332 27.126 A 1.236 1.236 0 0 1 115.775 27.492 A 16.078 16.078 0 0 1 115.131 27.683 Q 114.809 27.771 114.53 27.976 A 0.842 0.842 0 0 0 114.314 28.216 Q 114.2 28.403 114.135 28.679 A 1.106 1.106 0 0 0 113.896 28.573 Q 113.664 28.504 113.432 28.562 A 20.035 20.035 0 0 0 113.161 28.624 A 23.683 23.683 0 0 0 112.875 28.693 A 3.086 3.086 0 0 1 112.426 28.772 A 2.749 2.749 0 0 1 112.304 28.781 A 1.507 1.507 0 0 1 112.224 28.783 A 1.454 1.454 0 0 1 111.762 28.708 A 0.803 0.803 0 0 1 111.487 28.548 Q 111.4 28.472 111.322 28.367 A 1.485 1.485 0 0 1 111.293 28.327 A 1.092 1.092 0 0 1 111.099 28.391 Q 111.004 28.412 110.913 28.412 A 0.79 0.79 0 0 1 110.531 28.313 Q 110.18 28.122 109.872 27.785 A 11.109 11.109 0 0 1 109.271 27.067 Q 109.069 26.804 108.88 26.638 A 1.592 1.592 0 0 0 108.715 26.511 Q 108.539 26.042 108.729 25.705 A 7.22 7.22 0 0 1 109.14 25.061 Q 109.359 24.753 109.447 24.445 A 0.465 0.465 0 0 0 109.465 24.317 Q 109.465 24.067 109.218 23.743 A 2.307 2.307 0 0 0 109.184 23.698 Q 109.477 23.259 109.711 22.775 A 44.589 44.589 0 0 1 110.194 21.809 A 14.504 14.504 0 0 1 110.722 20.871 A 2.916 2.916 0 0 1 111.41 20.095 A 0.948 0.948 0 0 1 111.317 19.968 Q 111.273 19.894 111.252 19.821 A 0.443 0.443 0 0 1 111.234 19.699 A 0.875 0.875 0 0 1 111.291 19.393 A 1.049 1.049 0 0 1 111.322 19.318 A 3.585 3.585 0 0 1 111.499 18.985 A 3.958 3.958 0 0 1 111.527 18.938 A 2.049 2.049 0 0 0 111.63 18.751 A 1.543 1.543 0 0 0 111.703 18.571 L 112.553 18.161 L 112.348 17.458 Q 112.67 17.517 112.831 17.429 A 0.517 0.517 0 0 0 113.065 17.165 A 1.886 1.886 0 0 0 113.139 16.953 A 2.411 2.411 0 0 0 113.183 16.77 A 1.703 1.703 0 0 1 113.25 16.524 A 1.4 1.4 0 0 1 113.314 16.374 A 0.844 0.844 0 0 1 113.754 15.993 A 22.625 22.625 0 0 0 114.97 14.997 A 55.97 55.97 0 0 1 116.171 13.972 A 19.949 19.949 0 0 1 117.416 13.02 Q 118.061 12.566 118.822 12.243 A 2.606 2.606 0 0 1 119.173 12.325 Q 119.352 12.382 119.497 12.461 A 1.309 1.309 0 0 1 119.657 12.566 A 1.64 1.64 0 0 1 120.024 12.948 A 1.513 1.513 0 0 1 120.126 13.122 A 2.938 2.938 0 0 1 120.313 13.6 A 3.527 3.527 0 0 1 120.375 13.84 Q 120.463 14.235 120.551 14.616 A 4.717 4.717 0 0 0 120.69 15.024 Q 120.772 15.23 120.867 15.403 A 2.749 2.749 0 0 0 120.902 15.466 A 1.22 1.22 0 0 0 121.175 15.784 Q 121.353 15.933 121.605 16.052 Q 121.268 16.631 121.268 17.2 A 1.921 1.921 0 0 0 121.283 17.443 A 112.233 112.233 0 0 1 121.371 18.15 A 130.311 130.311 0 0 1 121.459 18.894 A 5.178 5.178 0 0 1 121.5 19.536 A 4.873 4.873 0 0 1 121.444 20.271 Q 121.342 20.944 120.58 21.472 A 1.038 1.038 0 0 0 120.541 21.758 A 1.233 1.233 0 0 0 120.551 21.911 A 3.776 3.776 0 0 1 120.58 22.38 Q 120.58 22.614 120.492 22.819 A 0.6 0.6 0 0 1 120.29 23.069 A 0.828 0.828 0 0 1 120.17 23.142 A 1.469 1.469 0 0 1 120.33 23.378 Q 120.412 23.531 120.437 23.684 A 0.849 0.849 0 0 1 120.448 23.786 Q 120.463 24.108 120.478 24.401 A 1.242 1.242 0 0 0 120.544 24.753 A 1.106 1.106 0 0 0 120.624 24.929 A 0.483 0.483 0 0 0 120.758 25.076 Q 120.889 25.175 121.116 25.244 A 2.291 2.291 0 0 0 121.254 25.28 Q 121.326 25.594 121.389 25.778 A 1.915 1.915 0 0 0 121.415 25.852 A 1.306 1.306 0 0 0 121.479 25.994 Q 121.517 26.066 121.561 26.123 A 0.727 0.727 0 0 0 121.591 26.159 Q 121.68 26.261 121.824 26.352 A 1.582 1.582 0 0 0 121.869 26.379 Q 122.045 26.482 122.338 26.687 Q 122.528 26.734 122.757 26.704 A 1.602 1.602 0 0 0 122.865 26.687 Q 123.129 26.634 123.298 26.818 A 0.587 0.587 0 0 1 123.334 26.862 Q 123.48 26.716 123.686 26.701 A 1.875 1.875 0 0 1 123.818 26.696 Q 123.916 26.696 124.007 26.707 A 1.36 1.36 0 0 1 124.066 26.716 L 124.447 27.36 A 3.559 3.559 0 0 1 124.932 27.066 A 4.241 4.241 0 0 1 125.18 26.95 Q 125.59 26.775 125.971 26.657 A 14.278 14.278 0 0 1 126.85 26.452 Z M 43.939 31.755 L 43.559 32.487 Q 43.266 32.663 42.914 32.81 Q 42.563 32.956 42.211 33.132 A 3.617 3.617 0 0 0 41.566 33.542 Q 41.273 33.776 41.127 34.128 Q 40.805 33.952 40.526 34.113 A 3.862 3.862 0 0 0 40.034 34.454 A 4.287 4.287 0 0 0 39.984 34.494 A 3.216 3.216 0 0 1 39.581 34.783 A 2.836 2.836 0 0 1 39.442 34.86 Q 39.164 35.007 38.842 34.831 A 11.78 11.78 0 0 0 37.772 35.593 A 42.112 42.112 0 0 1 36.732 36.399 Q 36.205 36.794 35.634 37.131 A 4.942 4.942 0 0 1 34.418 37.644 Q 34.096 38.171 33.568 38.479 A 37.71 37.71 0 0 1 32.499 39.079 A 4.722 4.722 0 0 0 31.518 39.782 A 1.7 1.7 0 0 0 31.098 40.411 A 2.448 2.448 0 0 0 30.961 40.925 A 3.304 3.304 0 0 0 30.196 41.595 A 2.836 2.836 0 0 0 29.716 42.434 A 6.174 6.174 0 0 0 29.352 44.33 A 6.929 6.929 0 0 0 29.35 44.397 A 14.815 14.815 0 0 0 29.344 44.814 A 15.525 15.525 0 0 0 29.438 46.506 A 20.932 20.932 0 0 1 29.525 47.528 A 15.46 15.46 0 0 1 29.555 48.454 Q 29.852 48.797 30.149 48.979 A 1.612 1.612 0 0 0 30.316 49.069 A 1.867 1.867 0 0 0 31.107 49.245 A 3.523 3.523 0 0 0 31.876 49.158 A 3.928 3.928 0 0 0 31.942 49.143 A 13.626 13.626 0 0 1 32.385 49.044 A 16.962 16.962 0 0 1 32.865 48.952 Q 32.944 48.658 33.108 48.501 A 0.611 0.611 0 0 1 33.29 48.381 A 2.885 2.885 0 0 1 33.935 48.191 A 3.851 3.851 0 0 0 34.314 48.105 A 3.11 3.11 0 0 0 34.55 48.029 Q 34.828 47.927 34.857 47.546 L 35.121 47.78 A 1.702 1.702 0 0 1 35.182 47.414 A 1.234 1.234 0 0 1 35.385 47.004 A 3.354 3.354 0 0 1 35.853 46.508 A 3.791 3.791 0 0 1 35.941 46.433 Q 36.264 46.169 36.63 45.935 A 3.205 3.205 0 0 0 37.085 45.585 A 2.783 2.783 0 0 0 37.26 45.407 A 1.907 1.907 0 0 1 37.249 45.241 Q 37.245 45.012 37.301 44.817 A 1.17 1.17 0 0 1 37.465 44.47 A 5.086 5.086 0 0 1 38.051 43.767 Q 38.373 43.444 38.622 43.064 A 1.214 1.214 0 0 0 38.798 42.613 Q 38.841 42.379 38.813 42.097 A 0.811 0.811 0 0 0 39.039 41.963 A 0.685 0.685 0 0 0 39.223 41.716 A 12.6 12.6 0 0 1 39.397 41.341 A 10.893 10.893 0 0 1 39.457 41.218 A 0.977 0.977 0 0 1 39.581 41.027 A 0.756 0.756 0 0 1 39.765 40.866 Q 39.955 40.749 40.365 40.925 A 2.327 2.327 0 0 1 40.238 40.818 Q 40.017 40.617 40.017 40.483 A 0.146 0.146 0 0 1 40.028 40.427 Q 40.097 40.262 40.281 40.136 A 1.061 1.061 0 0 1 40.307 40.119 Q 40.512 39.987 40.688 39.812 Q 40.863 39.636 40.688 39.284 A 2.133 2.133 0 0 0 41.095 39.064 Q 41.35 38.885 41.493 38.648 A 1.232 1.232 0 0 0 41.596 38.435 A 6.298 6.298 0 0 0 41.872 37.424 A 7.079 7.079 0 0 0 41.903 37.248 Q 42.006 36.618 42.211 36.018 A 1.5 1.5 0 0 1 42.69 35.34 A 2.246 2.246 0 0 1 43.119 35.066 A 1.785 1.785 0 0 1 43.108 34.881 Q 43.106 34.617 43.189 34.389 A 1.282 1.282 0 0 1 43.31 34.143 A 17.045 17.045 0 0 1 43.683 33.574 A 15.075 15.075 0 0 1 43.808 33.396 A 2.397 2.397 0 0 0 44.081 32.898 A 2.124 2.124 0 0 0 44.159 32.663 A 0.737 0.737 0 0 0 44.184 32.471 Q 44.184 32.155 43.939 31.755 Z M 35.004 5.886 L 34.506 4.421 Q 33.891 5.446 33.202 6.399 Q 32.514 7.351 31.928 8.376 Q 31.723 8.728 31.576 9.094 A 3.864 3.864 0 0 1 31.253 9.723 A 4.325 4.325 0 0 1 31.195 9.812 A 12.572 12.572 0 0 1 30.756 10.456 A 4.144 4.144 0 0 0 30.346 11.159 Q 29.994 11.833 29.716 12.58 A 21.461 21.461 0 0 1 29.115 14.03 A 8.279 8.279 0 0 1 28.295 15.349 Q 27.826 15.964 27.445 16.667 L 26.977 17.605 A 1.485 1.485 0 0 1 26.94 17.689 Q 26.903 17.766 26.866 17.815 A 0.406 0.406 0 0 1 26.859 17.824 Q 26.803 17.894 26.747 18.031 A 1.775 1.775 0 0 0 26.742 18.044 A 1.962 1.962 0 0 0 26.632 18.56 A 2.342 2.342 0 0 0 26.625 18.747 A 2.894 2.894 0 0 1 26.594 19.179 A 2.38 2.38 0 0 1 26.537 19.45 A 2.841 2.841 0 0 1 26.273 20.124 Q 26.098 20.446 25.951 20.769 A 4.078 4.078 0 0 0 25.717 21.428 A 7.375 7.375 0 0 1 25.512 22.087 A 3.59 3.59 0 0 1 26.024 21.662 A 5.44 5.44 0 0 0 26.566 21.237 A 6.748 6.748 0 0 0 27.064 20.681 Q 27.299 20.388 27.592 20.153 Q 27.855 19.919 28.163 19.729 A 12.746 12.746 0 0 0 28.764 19.333 A 10.498 10.498 0 0 0 29.584 18.015 A 3.812 3.812 0 0 0 29.768 17.624 A 4.853 4.853 0 0 0 29.892 17.282 A 3.383 3.383 0 0 1 30.085 16.804 A 2.831 2.831 0 0 1 30.229 16.55 A 2.832 2.832 0 0 1 30.55 16.083 A 3.304 3.304 0 0 1 30.683 15.935 A 4.073 4.073 0 0 0 31.14 15.36 A 3.78 3.78 0 0 0 31.166 15.319 Q 31.4 14.997 31.562 14.646 A 5.597 5.597 0 0 1 31.928 13.972 A 11.097 11.097 0 0 1 32.836 12.741 L 32.982 10.896 L 34.037 9.665 L 34.184 8.552 L 34.916 7.526 L 35.004 5.886 Z M 93.51 44.177 L 93.305 43.942 L 93.979 43.21 Q 93.568 42.712 93.686 42.434 A 1.208 1.208 0 0 1 93.853 42.154 Q 93.954 42.027 94.096 41.906 A 5.543 5.543 0 0 0 94.638 41.379 A 0.571 0.571 0 0 0 94.782 41.021 Q 94.793 40.836 94.711 40.603 Q 95.08 40.524 95.224 40.349 A 0.415 0.415 0 0 0 95.253 40.31 Q 95.372 40.125 95.372 39.881 A 1.045 1.045 0 0 0 95.37 39.826 A 2.346 2.346 0 0 0 95.307 39.401 A 2.721 2.721 0 0 0 95.268 39.255 Q 95.18 38.962 95.18 38.669 A 1.05 1.05 0 0 1 95.326 38.127 A 0.662 0.662 0 0 1 95.489 37.945 Q 95.648 37.82 95.912 37.732 Q 95.678 37.263 95.81 36.897 Q 95.941 36.53 96.205 36.237 A 9.76 9.76 0 0 1 96.747 35.681 Q 97.025 35.417 97.084 35.124 Q 96.706 35.07 96.406 35.138 A 1.246 1.246 0 0 0 96.059 35.271 Q 95.648 35.505 95.326 35.857 Q 95.004 36.208 94.696 36.56 A 1.599 1.599 0 0 1 94.319 36.88 A 1.403 1.403 0 0 1 93.979 37.028 A 1.029 1.029 0 0 1 93.753 37.066 Q 93.654 37.071 93.546 37.06 A 1.508 1.508 0 0 1 93.524 37.058 A 10.05 10.05 0 0 0 93.225 37.027 A 8.263 8.263 0 0 0 93.056 37.014 A 0.819 0.819 0 0 0 93.001 37.012 A 0.739 0.739 0 0 0 92.646 37.102 A 0.491 0.491 0 0 0 92.503 37.221 Q 92.407 37.335 92.338 37.526 Q 91.898 37.79 91.605 38.171 A 38.682 38.682 0 0 0 91.034 38.933 Q 90.756 39.314 90.404 39.636 A 2.089 2.089 0 0 1 89.944 39.952 A 2.87 2.87 0 0 1 89.496 40.134 Q 89.057 41.071 88.485 41.921 A 29.201 29.201 0 0 0 87.416 43.635 Q 86.918 44.499 86.61 45.437 Q 86.303 46.374 86.391 47.517 A 6.26 6.26 0 0 1 86.895 48.089 A 7.049 7.049 0 0 1 87.006 48.234 A 15.874 15.874 0 0 0 87.606 48.996 Q 87.914 49.362 88.28 49.655 A 2.157 2.157 0 0 0 89.115 50.066 Q 89.203 50.095 89.423 50.124 Q 89.643 50.153 89.73 50.124 A 1.032 1.032 0 0 0 90.094 50 A 0.95 0.95 0 0 0 90.346 49.787 A 2.685 2.685 0 0 0 90.616 49.399 A 3.344 3.344 0 0 0 90.756 49.128 Q 90.932 48.747 91.063 48.366 A 3.473 3.473 0 0 1 91.187 48.055 Q 91.259 47.899 91.341 47.769 A 2.039 2.039 0 0 1 91.371 47.722 A 3.276 3.276 0 0 0 91.807 47.406 A 2.389 2.389 0 0 0 92.191 46.989 Q 92.484 46.579 92.689 46.11 A 10.388 10.388 0 0 0 93.056 45.144 A 4.338 4.338 0 0 1 93.501 44.192 A 4.759 4.759 0 0 1 93.51 44.177 Z M 90.199 17.194 L 90.287 16.989 A 2.135 2.135 0 0 1 89.948 16.676 A 1.544 1.544 0 0 1 89.657 16.184 A 7.638 7.638 0 0 1 89.394 15.261 A 6.338 6.338 0 0 0 89.135 14.381 A 5.834 5.834 0 0 0 89.13 14.367 A 1.317 1.317 0 0 0 88.799 13.878 A 1.861 1.861 0 0 0 88.5 13.65 L 88.441 13.62 Q 88.412 13.62 88.12 13.679 A 8.213 8.213 0 0 0 88.018 13.7 Q 87.819 13.742 87.769 13.766 A 0.116 0.116 0 0 0 87.768 13.767 Q 88.002 13.972 88.061 14.118 A 0.461 0.461 0 0 1 88.092 14.243 Q 88.094 14.265 88.094 14.286 A 0.435 0.435 0 0 1 88.075 14.411 Q 88.031 14.558 87.929 14.719 Q 87.833 14.87 87.775 15.085 A 1.888 1.888 0 0 0 87.768 15.114 Q 87.718 15.164 87.584 15.098 A 0.838 0.838 0 0 1 87.533 15.07 A 10.859 10.859 0 0 1 87.451 15.022 Q 87.371 14.975 87.316 14.939 A 2.486 2.486 0 0 1 87.27 14.909 A 1.905 1.905 0 0 1 86.112 15.715 A 283.492 283.492 0 0 0 85.384 15.902 A 243.295 243.295 0 0 0 84.691 16.081 A 4.009 4.009 0 0 0 84.75 16.22 A 3.035 3.035 0 0 0 84.809 16.345 A 3.035 3.035 0 0 1 84.867 16.469 A 4.009 4.009 0 0 1 84.926 16.608 A 3.965 3.965 0 0 0 84.168 17.257 A 3.214 3.214 0 0 0 83.651 18.029 Q 83.256 18.864 82.948 19.758 A 13.492 13.492 0 0 1 82.216 21.486 A 3.58 3.58 0 0 1 81.323 22.599 A 4.483 4.483 0 0 1 80.912 22.907 A 1.785 1.785 0 0 1 81.052 23.178 A 1.46 1.46 0 0 1 81.117 23.376 A 0.419 0.419 0 0 0 81.263 23.6 Q 81.355 23.675 81.498 23.728 A 2.131 2.131 0 0 1 81.573 24.291 A 2.209 2.209 0 0 1 81.571 24.387 Q 81.557 24.724 81.498 25.046 Q 81.439 25.368 81.425 25.705 A 2.223 2.223 0 0 0 81.423 25.802 Q 81.423 26.092 81.498 26.394 L 81.557 26.452 Q 82.465 26.775 82.978 26.511 A 3.434 3.434 0 0 0 83.886 25.837 Q 84.281 25.427 84.75 25.075 Q 85.216 24.726 86.06 24.898 A 3.39 3.39 0 0 1 86.068 24.9 L 86.186 24.724 A 2.593 2.593 0 0 1 86.14 24.601 Q 86.121 24.545 86.106 24.494 A 1.456 1.456 0 0 1 86.098 24.46 A 0.951 0.951 0 0 1 86.075 24.327 A 1.273 1.273 0 0 1 86.068 24.196 A 1.335 1.335 0 0 1 86.105 23.982 Q 86.135 23.866 86.185 23.774 A 0.704 0.704 0 0 1 86.244 23.684 A 3.292 3.292 0 0 1 86.366 23.535 Q 86.436 23.454 86.52 23.366 A 6.394 6.394 0 0 1 86.625 23.259 Q 86.83 23.025 87.021 22.761 A 7.835 7.835 0 0 0 87.387 22.204 Q 87.563 21.941 87.797 21.75 Q 88.031 21.56 88.412 21.706 L 88.969 19.597 A 0.24 0.24 0 0 1 89.022 19.491 Q 89.091 19.406 89.247 19.333 A 2.589 2.589 0 0 0 89.522 19.184 A 2.112 2.112 0 0 0 89.687 19.069 Q 89.877 18.923 89.921 18.689 A 0.271 0.271 0 0 0 89.925 18.639 Q 89.925 18.415 89.584 18.073 A 0.8 0.8 0 0 0 89.629 17.961 Q 89.647 17.905 89.661 17.841 A 1.522 1.522 0 0 0 89.672 17.78 A 1.666 1.666 0 0 1 89.72 17.572 A 1.389 1.389 0 0 1 89.76 17.458 A 0.853 0.853 0 0 1 89.816 17.343 Q 89.856 17.274 89.906 17.224 A 0.174 0.174 0 0 1 89.991 17.178 Q 90.073 17.158 90.199 17.194 Z M 119.291 14.997 L 118.324 14.792 Q 118.078 15.011 117.73 15.23 A 6.368 6.368 0 0 1 117.68 15.261 Q 117.299 15.495 116.933 15.759 A 3.772 3.772 0 0 0 116.487 16.133 A 3.221 3.221 0 0 0 116.303 16.33 A 1.38 1.38 0 0 0 115.98 17.048 A 1.912 1.912 0 0 0 115.602 17.152 Q 115.381 17.24 115.227 17.38 A 0.997 0.997 0 0 0 115.043 17.605 Q 114.779 18.044 114.604 18.571 A 18.849 18.849 0 0 1 114.223 19.611 A 1.549 1.549 0 0 1 113.609 20.345 A 1.987 1.987 0 0 1 113.49 20.417 Q 113.367 20.499 113.258 20.524 A 0.409 0.409 0 0 1 113.168 20.534 Q 113.197 20.534 112.992 20.651 A 2.27 2.27 0 0 0 112.454 21.21 A 2.569 2.569 0 0 0 112.436 21.237 Q 112.201 21.589 112.04 21.999 A 12.052 12.052 0 0 0 111.747 22.834 A 45.081 45.081 0 0 1 111.619 23.241 A 34.305 34.305 0 0 1 111.498 23.61 Q 111.121 23.664 110.917 23.768 A 0.789 0.789 0 0 0 110.883 23.786 A 0.952 0.952 0 0 0 110.783 23.851 Q 110.679 23.93 110.642 24.014 A 0.254 0.254 0 0 0 110.634 24.035 A 0.374 0.374 0 0 0 110.615 24.14 Q 110.612 24.233 110.648 24.343 A 1.766 1.766 0 0 0 110.716 24.514 Q 110.762 24.615 110.824 24.724 Q 110.941 24.9 111.073 25.134 A 3.428 3.428 0 0 1 111.264 25.529 A 3.091 3.091 0 0 1 111.293 25.603 A 1.637 1.637 0 0 1 111.39 26.009 A 1.516 1.516 0 0 1 111.396 26.071 A 0.679 0.679 0 0 1 111.397 26.114 Q 111.397 26.324 111.264 26.511 Q 111.655 26.818 112.019 26.659 A 0.744 0.744 0 0 0 112.055 26.643 Q 112.436 26.452 112.758 26.218 A 16.243 16.243 0 0 0 112.879 26.126 A 19.765 19.765 0 0 0 113.007 26.027 A 1.151 1.151 0 0 1 113.267 25.874 A 1.079 1.079 0 0 1 113.285 25.866 Q 113.544 25.923 113.786 25.923 A 1.86 1.86 0 0 0 114.516 25.778 A 3.774 3.774 0 0 0 115.541 25.134 A 12.79 12.79 0 0 0 116.449 24.255 Q 116.889 23.786 117.328 23.435 L 117.094 23.2 A 2.645 2.645 0 0 0 117.38 23.104 Q 117.686 22.98 117.841 22.805 A 1.163 1.163 0 0 0 118.119 22.233 A 1.86 1.86 0 0 0 118.148 21.9 Q 118.148 21.76 118.129 21.613 A 2.471 2.471 0 0 0 118.119 21.545 A 8.579 8.579 0 0 1 118.05 20.996 A 10.014 10.014 0 0 1 118.031 20.769 A 2.466 2.466 0 0 1 118.012 20.463 A 2.226 2.226 0 0 1 118.017 20.315 A 1.497 1.497 0 0 1 118.069 20.013 A 1.832 1.832 0 0 1 118.119 19.86 A 2.518 2.518 0 0 1 118 19.369 Q 117.98 19.224 117.98 19.082 A 2.009 2.009 0 0 1 118.046 18.571 A 6.412 6.412 0 0 1 118.485 17.385 Q 118.764 16.814 119.027 16.228 A 2.965 2.965 0 0 0 119.291 14.997 Z M 99.545 10.163 L 101.215 8.23 Q 101.539 8.354 101.757 8.522 A 1.455 1.455 0 0 1 101.83 8.581 Q 102.064 8.786 102.211 9.05 Q 102.357 9.314 102.504 9.592 A 4.956 4.956 0 0 0 102.71 9.946 A 6.01 6.01 0 0 0 102.855 10.163 A 0.896 0.896 0 0 0 102.628 10.247 A 0.627 0.627 0 0 0 102.343 10.559 Q 102.211 10.866 102.167 11.218 A 8.529 8.529 0 0 0 102.108 11.921 A 1.856 1.856 0 0 1 102.087 12.141 Q 102.07 12.247 102.04 12.336 A 0.813 0.813 0 0 1 101.977 12.478 A 0.389 0.389 0 0 1 101.695 12.673 A 0.628 0.628 0 0 1 101.581 12.683 A 0.614 0.614 0 0 1 101.414 12.656 Q 101.155 12.582 100.746 12.302 A 1.365 1.365 0 0 1 100.507 12.229 Q 100.376 12.174 100.28 12.095 A 0.677 0.677 0 0 1 100.16 11.965 A 1.828 1.828 0 0 1 99.896 11.408 A 6.155 6.155 0 0 1 99.765 10.848 A 6.811 6.811 0 0 1 99.75 10.764 A 2.054 2.054 0 0 0 99.649 10.39 A 1.706 1.706 0 0 0 99.545 10.163 Z" vector-effect="non-scaling-stroke"/></g></svg>